<?xml version="1.0" standalone="no"?>
<!DOCTYPE svg PUBLIC "-//W3C//DTD SVG 1.1//EN" "http://www.w3.org/Graphics/SVG/1.1/DTD/svg11.dtd" >
<svg xmlns="http://www.w3.org/2000/svg">
  <metadata>Created by iconfont</metadata>
  <defs>
  <font id="font_family" horiz-adv-x="1024">
    <font-face
      font-family="font_family"
      font-weight="400"
      font-stretch="normal"
      units-per-em="1024"
      ascent="896"
      descent="-128"
    />
      <missing-glyph />
      
      <glyph glyph-name="Parallel" unicode="&#58883;" d="M813.056 778.368a38.4 38.4 0 1 1-54.272-54.272l62.4-62.464h-168.128a102.4 102.4 0 0 1-72.384-30.016L378.944 429.888a25.6 25.6 0 0 0-18.112-7.488H112.832a38.4 38.4 0 1 1 0-76.8h216.64a25.6 25.6 0 0 0 18.112-7.488l201.728-201.728c19.2-19.2 45.248-30.016 72.384-30.016h199.488l-62.4-62.464a38.4 38.4 0 0 1 54.272-54.272l128 128a38.4 38.4 0 0 1 0 54.336l-128 128a38.4 38.4 0 1 1-54.272-54.4l62.4-62.4H621.696a25.6 25.6 0 0 0-18.112 7.488l-177.92 178.048c2.56 2.112 5.12 4.48 7.616 6.912L635.008 577.28a25.6 25.6 0 0 0 18.048 7.488h168.128l-62.4-62.464a38.4 38.4 0 0 1 54.272-54.272l128 128a38.4 38.4 0 0 1 0 54.272l-128 128z"  horiz-adv-x="1024" />
      
      <glyph glyph-name="binglie-" unicode="&#59018;" d="M537.486-9.216v360.448h168.694c0 18.205 0 35.196-1.214 53.399h-167.481v358.020h166.268c0 16.991 0 33.982 1.214 50.973h-192.967c-14.563 0-25.486-12.137-25.486-25.486v-385.934h-189.326c-10.923 57.041-61.895 99.518-121.363 99.518-67.964 0-123.79-55.827-123.79-123.79s55.827-123.79 123.79-123.79c59.468 0 108.013 41.263 121.363 97.090h188.113v-385.934c0-14.563 12.137-25.486 25.486-25.486h197.822c0 16.991 0 33.982 1.214 50.973h-172.335zM924.634 875.52c-4.854 4.854-12.137 8.495-18.205 8.495-7.282 0-13.35-3.641-18.205-8.495l-86.167-99.518-32.768 38.836c-4.854 6.068-10.923 8.495-18.205 8.495s-13.35-2.428-18.205-8.495c-9.709-9.709-9.709-26.7 0-37.622l50.973-59.468 2.428-2.428c1.214-1.214 2.428-2.428 3.641-2.428l3.641-2.428c3.641-1.214 6.068-2.428 9.709-2.428s7.282 1.214 9.709 2.428l3.641 2.428c1.214 0 2.428 1.214 3.641 2.428l104.372 123.79c8.495 9.709 8.495 26.7 0 36.409zM924.634 471.381c-4.854 4.854-12.137 8.495-18.205 8.495-7.282 0-13.35-3.641-18.205-8.495l-86.167-99.518-32.768 38.836c-4.854 6.068-10.923 8.495-18.205 8.495s-13.35-2.428-18.205-8.495c-9.709-9.709-9.709-26.7 0-37.622l50.973-59.468 2.428-2.428h1.214c1.214-1.214 2.428-2.428 3.641-2.428l2.428-1.214 1.214-1.214c3.641-1.214 6.068-2.428 9.709-2.428s7.282 1.214 9.709 2.428l2.428 2.428c1.214 0 2.428 1.214 3.641 2.428l104.372 123.79c8.495 9.709 8.495 26.7 0 36.409zM924.634 62.388c-4.854 4.854-10.923 8.495-18.205 8.495s-13.35-3.641-18.205-8.495l-86.167-99.518-32.768 38.836c-4.854 6.068-10.923 8.495-18.205 8.495-6.068 0-13.35-2.428-18.205-8.495-9.709-9.709-9.709-26.7 0-37.622l49.759-59.468 1.214-1.214c2.428-2.428 3.641-3.641 4.854-3.641l2.428-1.214 1.214-1.214c3.641-1.214 6.068-2.428 9.709-2.428s7.282 1.214 9.709 2.428l2.428 2.428c1.214 0 2.428 1.214 3.641 2.428l106.799 123.79c8.495 9.709 8.495 26.7 0 36.409z"  horiz-adv-x="1024" />
      
      <glyph glyph-name="connect" unicode="&#59072;" d="M846.019 412.768l0.18 224.446c0 33.137-26.683 60.067-59.82 60.067-1.462 0-2.958-0.13-4.477-0.281H396.083c-15.187 76.959-83.035 135-164.449 135C139.052 832 64 756.948 64 664.366s75.052-167.634 167.634-167.634c83.261 0 152.332 60.705 165.398 140.268H786v-220H243.019c-33.137 0-59.986-26.513-59.986-59.65l-0.033 0.034v-222.018C183 102.229 209.882 75 243.019 75H333v0.418c16 0.098 29.828 13.488 29.828 29.995 0 16.569-13.427 29.817-29.995 29.817-0.555 0-1.101-0.23-1.649-0.23H243V357H786.199c31.647 0 57.553 24.699 59.82 55.768zM307.743 588.257c-20.329-20.329-47.359-31.525-76.109-31.525-28.75 0-55.779 11.196-76.109 31.525S124 635.616 124 664.366c0 28.75 11.196 55.779 31.525 76.109S202.884 772 231.634 772c28.75 0 55.779-11.196 76.109-31.525s31.525-47.359 31.525-76.109c0-28.75-11.196-55.779-31.525-76.109zM784.663 697h1.715-1.715zM545 135h-92c-16.568 0-30-13.432-30-30s13.432-30 30-30h92c16.568 0 30 13.432 30 30s-13.432 30-30 30zM795.366 274.268c-92.582 0-167.634-75.052-167.634-167.634S702.784-61 795.366-61 963 14.052 963 106.634s-75.052 167.634-167.634 167.634z m76.109-243.743C851.145 10.196 824.116-1 795.366-1s-55.779 11.196-76.109 31.525c-20.329 20.329-31.525 47.359-31.525 76.109s11.196 55.779 31.525 76.109c20.329 20.329 47.359 31.525 76.109 31.525s55.779-11.196 76.109-31.525C891.804 162.414 903 135.384 903 106.634s-11.196-55.779-31.525-76.109z"  horiz-adv-x="1024" />
      
      <glyph glyph-name="parallel" unicode="&#58880;" d="M512-99.555556c-34.133333 0-68.266667 11.377778-96.711111 39.822223l-347.022222 347.022222c-51.2 51.2-51.2 136.533333 0 193.422222l347.022222 347.022222c51.2 51.2 136.533333 51.2 193.422222 0l347.022222-347.022222c28.444444-28.444444 39.822222-62.577778 39.822223-96.711111s-11.377778-68.266667-39.822223-96.711111l-347.022222-347.022222c-28.444444-22.755556-62.577778-39.822222-96.711111-39.822223z m0 910.222223c-22.755556 0-39.822222-5.688889-56.888889-22.755556L108.088889 440.888889c-34.133333-34.133333-34.133333-85.333333 0-113.777778L455.111111-19.911111c28.444444-28.444444 85.333333-28.444444 113.777778 0l347.022222 347.022222c17.066667 17.066667 22.755556 34.133333 22.755556 56.888889s-5.688889 39.822222-22.755556 56.888889L568.888889 787.911111c-17.066667 17.066667-34.133333 22.755556-56.888889 22.755556zM290.133333 412.444444h443.733334v-56.888888H290.133333zM483.555556 605.866667h56.888888v-443.733334h-56.888888z"  horiz-adv-x="1024" />
      
      <glyph glyph-name="merge" unicode="&#59714;" d="M754.96 595.152l-56.576-56.56L804.976 432H535.568c-23.952 48-78.816 142.112-98.88 177.92C395.792 682.944 336.432 720 260.288 720H48v-80h212.272c46.944 0 79.824-21.36 106.624-69.216 20.256-36.144 75.92-136.528 99.36-178.848a82249.408 82249.408 0 0 0-99.36-178.784C340.096 165.312 307.216 144 260.272 144H48v-80h212.272c76.144 0 135.504 37.024 176.432 110.08C456.752 209.904 511.616 304 535.568 352h270.384l-107.568-107.568 56.576-56.56L958.608 391.52 754.96 595.152z"  horiz-adv-x="1024" />
      
      <glyph glyph-name="parallel1" unicode="&#58895;" d="M651.015235 398.949443L1016.064921 763.99913l66.54706-66.545491L717.560726 332.403952zM47.227755 426.216374a47.133645 47.133645 0 0 1-47.227755-47.055219 47.133645 47.133645 0 0 1 47.227755-47.055219h670.11338v94.110438zM1146.265145 895.105951L949.339052 858.46562a47.996324 47.996324 0 0 1-25.237283-13.034296c-20.092579-19.998468-18.367221-54.238983 3.858528-76.339251l34.805177-34.616956 90.440132-89.953895 34.820863-34.632641c22.225749-22.100268 56.654484-23.825626 76.747062-3.842843a47.463031 47.463031 0 0 1 13.112722 25.096117l36.859921 195.859508c3.387976 18.037834-2.980164 37.142253-17.049674 51.133339S1164.39709 898.478242 1146.265145 895.105951zM1040.202681-19.470273L731.997267 288.738277l66.545492 66.54706L1106.74974 47.076786zM1148.084614-127.105951l-196.926094 36.640331a47.996324 47.996324 0 0 0-25.237282 13.034296c-20.092579 19.982783-18.367221 54.223298 3.858528 76.339251l34.805177 34.616956 90.393076 89.96958 34.805178 34.601271c22.225749 22.115953 56.654484 23.841311 76.747063 3.858528a47.525772 47.525772 0 0 0 13.112721-25.096117l36.859922-195.875193c3.387976-18.022149-2.980164-37.142253-17.049675-51.133339s-33.23667-20.327855-51.368614-16.955564z"  horiz-adv-x="1217" />
      
      <glyph glyph-name="workflow" unicode="&#59028;" d="M197.76 533.76a158.72 158.72 0 1 0 158.72 158.72 158.72 158.72 0 0 0-158.72-158.72z m0 256a94.72 94.72 0 1 1 94.72-97.28A94.72 94.72 0 0 1 197.76 787.2zM289.28-97.28H106.24a76.16 76.16 0 0 0-76.16 76.16v183.68a76.16 76.16 0 0 0 76.16 76.16h183.04a76.16 76.16 0 0 0 76.16-76.16v-183.68a76.16 76.16 0 0 0-76.16-76.16z m-183.04 272a11.52 11.52 0 0 1-12.16-12.16v-183.68a11.52 11.52 0 0 1 12.16-12.16h183.04a11.52 11.52 0 0 1 12.16 12.16v183.68a11.52 11.52 0 0 1-12.16 12.16zM821.12 533.76a64 64 0 0 0-46.72 19.2l-92.8 92.8a64 64 0 0 0 0 93.44L774.4 832a64 64 0 0 0 93.44 0L960 739.2a67.2 67.2 0 0 0 0-94.08l-91.52-92.16a67.84 67.84 0 0 0-47.36-19.2z m0 256l-94.08-95.36 92.8-96 95.36 92.16-92.8 96s-0.64 0.64-1.28 0.64zM227.2 248.96V398.08h80.64L215.04 496.64a23.04 23.04 0 0 1-34.56 0L87.68 398.08h80.64v-149.12zM530.56 721.92H384v-58.88h146.56V582.4l101.12 95.36a19.2 19.2 0 0 1 0 29.44L530.56 801.92zM791.68 520.32V371.2h-80l95.36-101.76a19.84 19.84 0 0 1 28.8 0l95.36 101.76h-80.64V520.32z"  horiz-adv-x="1024" />
      
      <glyph glyph-name="workflow_" unicode="&#58902;" d="M942.08-128H81.92A81.92 81.92 0 0 0 0-46.08V814.08A81.92 81.92 0 0 0 81.92 896h860.16A81.92 81.92 0 0 0 1024 814.08v-860.16A81.92 81.92 0 0 0 942.08-128zM81.92 827.538286a13.421714 13.421714 0 0 1-13.458286-13.458286v-860.16c0-7.424 6.034286-13.421714 13.458286-13.421714h860.16a13.458286 13.458286 0 0 1 13.421714 13.421714V814.08a13.458286 13.458286 0 0 1-13.421714 13.458286H81.92z m376.685714-107.154286a78.738286 78.738286 0 0 1-81.261714-76.141714 78.701714 78.701714 0 0 1 81.261714-78.701715h108.8a78.738286 78.738286 0 0 1 81.298286 76.8 78.738286 78.738286 0 0 1-81.298286 78.08H458.605714z m0-101.741714a25.6 25.6 0 1 0 0 50.578285h108.8a25.6 25.6 0 1 0 0-50.578285H458.605714z m108.8-153.6H458.605714a76.8 76.8 0 1 1 0-153.6h108.8a76.8 76.8 0 0 1 0 153.6z m-108.8-102.4a25.6 25.6 0 0 0 0 51.2h108.8a25.6 25.6 0 1 0 0-51.2H458.605714z m108.8-153.6H458.605714a76.8 76.8 0 1 1 0-153.6h108.8a76.8 76.8 0 0 1 0 153.6z m-108.8-102.4a25.6 25.6 0 0 0 0 51.2h108.8a25.6 25.6 0 1 0 0-51.2H458.605714z m-189.44 51.2a112.64 112.64 0 0 0-76.141714 30.098285 99.218286 99.218286 0 0 0 0 144.64 112.64 112.64 0 0 0 76.8 30.061715h51.2v51.2H269.165714a158.72 158.72 0 0 1-162.56-153.6 158.72 158.72 0 0 1 162.56-153.6v-53.101715l81.298286 76.8-81.298286 76.8v-51.2 1.901715z m487.68 512h-51.821714v-50.541715h54.381714a112.64 112.64 0 0 0 76.8-30.098285c20.004571-18.724571 31.341714-44.909714 31.378286-72.301715a97.938286 97.938286 0 0 0-34.56-72.96 109.458286 109.458286 0 0 0-76.8-30.098285v51.2l-81.298286-76.8 81.92-78.701715v51.2a158.098286 158.098286 0 0 1 162.56 153.6 158.061714 158.061714 0 0 1-162.56 152.941715v2.56z"  horiz-adv-x="1024" />
      
      <glyph glyph-name="drag" unicode="&#59353;" d="M909.3 389.7L781.7 490.4c-4.7 3.7-11.7 0.4-11.7-5.7V420H548V642h64.8c6 0 9.4 7 5.7 11.7L517.7 781.3c-2.9 3.7-8.5 3.7-11.3 0L405.6 653.7c-3.7-4.7-0.4-11.7 5.7-11.7H476v-222H254v64.8c0 6-7 9.4-11.7 5.7L114.7 389.7c-3.7-2.9-3.7-8.5 0-11.3l127.5-100.8c4.7-3.7 11.7-0.4 11.7 5.7V348h222v-222h-64.8c-6 0-9.4-7-5.7-11.7l100.8-127.5c2.9-3.7 8.5-3.7 11.3 0l100.8 127.5c3.7 4.7 0.4 11.7-5.7 11.7H548V348h222v-64.8c0-6 7-9.4 11.7-5.7l127.5 100.8c3.7 2.9 3.7 8.5 0.1 11.4z"  horiz-adv-x="1024" />
      
      <glyph glyph-name="connection" unicode="&#60086;" d="M284.182 693.7c-13.929-49.23-59.194-85.3-112.882-85.3-64.783 0-117.3 52.518-117.3 117.3C54 790.483 106.517 843 171.3 843c53.688 0 98.953-36.07 112.882-85.3H427.2c64.135 0 116.248-51.472 117.284-115.36l0.016-1.94v-490.475c0-29.142 23.39-52.822 52.419-53.293l0.881-0.007 263.944 0.001-51.996 51.997c-12.372 12.371-12.496 32.353-0.372 44.877l0.372 0.377c12.371 12.372 32.353 12.496 44.877 0.372l0.377-0.372 106.625-106.625a31.878 31.878 0 0 0 6.832-10.111l0.08-0.19a28.362 28.362 0 0 0 0.227-0.557l0.046-0.117A31.868 31.868 0 0 0 971 64.625v-0.105l-0.003-0.325 0.003 0.43a32.63 32.63 0 0 0-0.042-1.653l-0.008-0.133a31.833 31.833 0 0 0-2.126-9.836l-0.063-0.16a19.082 19.082 0 0 0-0.195-0.482l-0.07-0.165a31.836 31.836 0 0 0-5.624-8.882l-0.098-0.11a24.451 24.451 0 0 0-0.477-0.517l-0.257-0.27-0.041-0.042-0.063-0.065-0.246-0.25-0.063-0.062-106.625-106.625c-12.496-12.497-32.758-12.497-45.254 0-12.372 12.371-12.496 32.353-0.372 44.877l0.372 0.377 51.998 51.999-263.946-0.001c-64.134 0-116.248 51.473-117.284 115.36l-0.016 1.94V640.4c0 29.142-23.389 52.822-52.419 53.293l-0.881 0.007zM171.3 779c-29.437 0-53.3-23.863-53.3-53.3 0-29.436 23.864-53.3 53.3-53.3 29.436 0 53.3 23.864 53.3 53.3 0 29.436-23.864 53.3-53.3 53.3z"  horiz-adv-x="1024" />
      
      <glyph glyph-name="parallel2" unicode="&#58882;" d="M733.184 8.704v81.408h-207.36l-5.632 0.512c-46.592 3.584-82.432 44.544-82.432 93.184v162.816H318.464c-10.752-31.232-35.84-55.808-67.584-66.56-57.856-20.48-121.856 9.728-142.336 66.56S118.272 466.432 176.128 486.4c57.856 20.48 121.856-9.728 142.336-66.56h119.296V588.8c3.072 48.64 40.448 87.552 88.064 87.552h207.36V757.76c0 2.048 0 4.608 1.536 6.144 3.072 4.096 9.728 5.12 14.336 2.048l167.424-117.76c0.512-0.512 1.536-1.024 2.048-2.048 3.584-4.096 2.56-10.752-2.048-13.824l-167.424-117.76c-1.536-1.024-3.584-1.536-5.632-1.536-5.632 0-10.24 4.608-10.24 10.24V603.648h-207.872l-2.048-0.512c-6.144-2.048-11.776-9.216-11.776-19.968V184.32l0.512-4.096c1.536-9.728 8.192-16.384 13.824-16.384h207.36v80.896c0 2.048 0 4.608 1.536 6.144 3.072 4.096 9.728 5.12 14.336 2.048l167.424-117.76c0.512-0.512 1.536-1.024 2.048-2.048 3.584-4.096 2.56-10.752-2.048-13.824l-167.424-117.76c-1.024-0.512-3.584-1.536-5.632-1.536-6.144 0-10.24 4.608-10.24 8.704z"  horiz-adv-x="1024" />
      
      <glyph glyph-name="biaodansheji-xuanxiangqia" unicode="&#58881;" d="M0 896h474.72v-470.528H0z m0-544.16h474.72V-128H0zM549.28 896H1024v-1024H549.28z"  horiz-adv-x="1024" />
      
      <glyph glyph-name="chaxun1" unicode="&#58884;" d="M992.608-14.08l-202.016 207.072a445.344 445.344 0 0 1 83.712 260.992v0.192C869.024 688.192 678.08 875.872 443.296 875.872 205.184 875.872 12.16 682.848 12.16 444.736c0-238.08 192.96-431.072 431.008-431.136a419.936 419.936 0 0 1 255.904 86.976l-0.992-0.736 202.016-207.68a67.2 67.2 0 0 1 46.528-19.52H947.04c17.92 0 34.08 7.488 45.536 19.488l0.032 0.032c11.968 12.256 19.36 29.024 19.36 47.52s-7.392 35.264-19.392 47.52zM118.4 454.176c4.576 175.808 148.16 316.576 324.672 316.576 179.36 0 324.768-145.408 324.768-324.768 0-179.328-145.344-324.704-324.64-324.768-179.904 2.464-324.768 148.896-324.768 329.152l0.032 4v-0.192z m0 0"  horiz-adv-x="1024" />
      
      <glyph glyph-name="chaxun" unicode="&#58885;" d="M706.4 290.304a278.336 278.336 0 0 1 58.88 171.872 280.256 280.256 0 1 1-560.512 0 280.256 280.256 0 0 1 452.736-220.896l-0.608-0.48 153.696-153.696a34.784 34.784 0 0 1 49.536 0 34.88 34.88 0 0 1 0 49.536l-153.696 153.696z m-431.552 171.84a210.4 210.4 0 0 0 210.176 210.176 210.432 210.432 0 0 0 210.176-210.176 210.4 210.4 0 0 0-210.176-210.176 210.4 210.4 0 0 0-210.176 210.176z"  horiz-adv-x="1024" />
      
      <glyph glyph-name="bumenguanli" unicode="&#58887;" d="M471.2 510.464c11.936-2.72 24.416-4.256 37.376-4.256a165.6 165.6 0 0 1 165.568 165.536c0 91.488-74.08 165.536-165.536 165.536s-165.536-74.08-165.536-165.536a165.312 165.312 0 0 1 128.16-161.28z m239.616 4.448c0-46.752 24.928-89.76 65.376-113.152 18.752-11.04 41.312-17.536 65.376-17.536s46.624 6.528 65.984 17.856l-0.608-0.32a130.624 130.624 0 0 1 0 226.304c-18.752 11.04-41.312 17.536-65.376 17.536s-46.624-6.528-65.984-17.856l0.608 0.32a130.4 130.4 0 0 1-65.376-113.152z m162.144-161.632h-78.176c-11.424 0-22.528-1.536-32.928-4.448v-418.304h180.736c31.392 0 56.832 25.44 56.832 56.832v239.456a126.528 126.528 0 0 1-126.464 126.464zM85.856 422.56a130.688 130.688 0 1 1 0 184.832 130.4 130.4 0 0 1 0-184.832zM151.04 353.28a126.528 126.528 0 0 1-126.464-126.464v-239.264c0-31.392 25.44-56.832 56.832-56.832h173.728v419.84a130.496 130.496 0 0 1-25.952 2.72H151.008z m532.64-421.728H338.944a36.64 36.64 0 0 0-36.704 36.704V305.152a150.4 150.4 0 0 0 150.368 150.368h117.408a150.4 150.4 0 0 0 150.368-150.368v-336.896c0-20.128-16.384-36.704-36.704-36.704z m0 0"  horiz-adv-x="1024" />
      
      <glyph glyph-name="chexiao_" unicode="&#58888;" d="M851.904 113.408l5.696 4.896c6.016 5.088 9.6 8.192-14.4 108-41.696 172.704-207.2 284.288-392.512 300.896V654.592L161.984 431.68l288.704-222.912v127.392c120 8.992 225.504-1.408 296.192-76.8 34.912-37.216 76.8-111.008 86.912-132.704 1.408-3.008 4.096-8.704 10.496-10.784l7.616-2.496z"  horiz-adv-x="1024" />
      
      <glyph glyph-name="del" unicode="&#58889;" d="M512 454.304L254.336 712.032A49.728 49.728 0 0 1 184 641.696l257.632-257.728-257.728-257.664a49.728 49.728 0 0 1 70.336-70.336l257.792 257.632 257.664-257.728a49.728 49.728 0 0 1 70.336 70.336L582.4 384l257.728 257.664a49.728 49.728 0 0 1-70.336 70.336L512 454.368z"  horiz-adv-x="1024" />
      
      <glyph glyph-name="data-dictionary-type" unicode="&#58891;" d="M982.368 654.4c-20.32 0-33.856-13.536-33.856-33.856v-555.168H609.984c-33.856 0-67.712-13.536-94.784-40.608-27.072 27.072-60.928 40.608-94.784 40.608H68.352V613.76c0 20.32-13.536 40.608-33.856 33.856C14.176 647.616 0.64 634.08 0.64 613.76V44.8c0-33.504 27.168-60.672 60.672-60.672H413.6c27.072 0 47.392-13.536 54.176-40.64 6.784-13.536 20.32-20.32 33.856-20.32h13.536c13.536 0 27.072 6.784 33.856 20.32 6.784 20.32 27.072 40.64 54.176 40.64H962.272a60.672 60.672 0 0 1 60.672 60.672V613.76c-6.784 20.32-20.32 40.608-40.64 40.608z m-148.928 189.568h-230.176c-40.608 0-67.712-13.536-94.784-40.608-27.072 27.072-60.928 40.608-94.784 40.608H183.488c-27.072 0-47.392-20.32-47.392-47.392v-643.168h277.6c27.072 0 47.392-13.536 54.176-40.64v-27.072h67.712v27.072c6.784 20.32 27.072 40.64 54.176 40.64h277.568V796.576c13.536 27.072-6.784 47.392-33.856 47.392z m-291.136-561.952c0-13.536-13.536-27.072-40.64-27.072s-33.856 13.536-33.856 27.072V661.152c0 13.536 13.536 27.072 40.608 27.072s40.608-13.536 40.608-27.072v-379.136h-6.784zM402.912 658.688H209.824V720.736h193.088v-62.048z m0-178.976H209.824V541.76h193.088v-62.048z m0-179.008H209.824v62.048h193.088v-62.048z m399.968 0h-188v62.048h188v-62.048z m0 179.008h-188V541.76h188v-62.048z m0 178.976h-188V720.736h188v-62.048z"  horiz-adv-x="1024" />
      
      <glyph glyph-name="cangchuzhongxin-" unicode="&#58892;" d="M512 745.056l300.192-191.328V15.36H211.808V553.728L512 745.056m0 89.504c-8.48 0-16.352-2.56-22.88-6.944l0.16 0.096-415.744-264.96a35.04 35.04 0 0 1-16.192-29.504v-0.032c0-19.264 15.584-34.88 34.816-34.976h37.536v-527.968c0-20.32 16.48-36.8 36.8-36.8H857.28a36.8 36.8 0 0 1 36.8 36.8V498.24h37.792c19.328 0 34.976 15.648 34.976 34.976v0.032c0 12.352-6.4 23.2-16.032 29.44l-0.128 0.096-415.744 264.96a40.96 40.96 0 0 1-22.784 6.848H512z m-186.016-368.64h143.296q23.488 0 23.488-23.488v-143.296q0-23.488-23.488-23.488h-143.296q-23.488 0-23.488 23.488v143.296q0 23.488 23.488 23.488z m0-224.416h143.296q23.488 0 23.488-23.488v-143.296q0-23.488-23.488-23.488h-143.296q-23.488 0-23.488 23.488v143.296q0 23.488 23.488 23.488z m228.704 0h143.296q23.488 0 23.488-23.488v-143.296q0-23.488-23.488-23.488h-143.296q-23.488 0-23.488 23.488v143.296q0 23.488 23.488 23.488z"  horiz-adv-x="1024" />
      
      <glyph glyph-name="bianji-copy" unicode="&#58893;" d="M348.32 228.96c18.08-18.08 46.624-18.08 63.776 0L909.824 726.688c18.08 18.08 18.08 46.624 0 64.704s-46.624 18.08-63.776 0L348.32 293.664a45.376 45.376 0 0 1 0-64.704z m551.008 223.648c-24.736 0-45.664-20-45.664-45.696v-364.48H170.368V725.728h364.48c24.736 0 44.736 20 45.664 45.696 0 24.736-20 45.664-44.736 45.664H124.64c-24.736 0-45.696-20-45.696-45.696v-774.656a45.312 45.312 0 0 1 45.664-45.664h774.656a45.312 45.312 0 0 1 45.664 45.664V406.912c0 25.696-20.928 45.696-45.664 45.696z"  horiz-adv-x="1024" />
      
      <glyph glyph-name="daichuliliucheng" unicode="&#58894;" d="M729.6 776H294.4c-65.6 0-118.4-52.8-118.4-118.4v-546.4c0-65.6 52.8-118.4 118.4-118.4h434.4c65.6 0 118.4 52.8 118.4 118.4V657.6a116.96 116.96 0 0 1-117.6 118.4zM305.6 632h328.8c11.2 0 20-8.8 20-20s-9.6-20-20-20H305.6c-11.2 0-20 8.8-20 20s8.8 20 20 20z m0-104h424.8c11.2 0 20-12.8 20-24s-8.8-24-20-24H305.6c-11.2 0-20 12.8-20 24s8.8 24 20 24z m196-152H305.6c-11.2 0-20 8.8-20 20S294.4 416 305.6 416h196c11.2 0 20-8.8 20-20s-8.8-20-20-20z m178.4-308c-77.6 0-140.8 63.2-140.8 140.8s63.2 140 140.8 140 140.8-63.2 140.8-140.8-63.2-140-140.8-140z m0 264.8c-68.8 0-124.8-56-124.8-124.8s56-124.8 124.8-124.8 124.8 56 124.8 124.8-56 124.8-124.8 124.8z m14.4-36.8l-0.8-26.4-4-93.6H672l-4 93.6-0.8 26.4h27.2z m-13.6-178.4c-10.4 0-18.4 8-18.4 19.2s8 19.2 18.4 19.2c10.4 0 18.4-8 18.4-19.2 0-12-8-19.2-18.4-19.2z"  horiz-adv-x="1024" />
      
      <glyph glyph-name="dayinji" unicode="&#58896;" d="M877.728 781.056H125.408a73.152 73.152 0 0 1-73.152-73.152v-438.848a73.152 73.152 0 0 1 73.152-73.152h125.376l3.008 0.16a31.392 31.392 0 0 1 28.352 31.2v94.048h438.848v-94.048c0-17.312 14.048-31.36 31.36-31.36h125.376a73.152 73.152 0 0 1 73.152 73.152V707.904a73.152 73.152 0 0 1-73.152 73.152zM125.376 718.368h752.32c5.76 0 10.464-4.672 10.464-10.464v-438.848l-0.16-1.888a10.496 10.496 0 0 0-10.272-8.576H783.68V352.64a31.36 31.36 0 0 1-31.36 31.36l-504.576-0.16a31.392 31.392 0 0 1-28.352-31.2v-94.048H125.344a10.464 10.464 0 0 0-10.464 10.464V707.904c0 5.76 4.672 10.464 10.464 10.464zM710.528 384H292.576a73.152 73.152 0 0 1-73.152-73.152v-250.784a73.152 73.152 0 0 1 73.152-73.152h417.952a73.152 73.152 0 0 1 73.152 73.152v250.784A73.152 73.152 0 0 1 710.528 384zM292.576 321.312h417.952c5.76 0 10.464-4.672 10.464-10.464v-250.784c0-5.76-4.672-10.464-10.464-10.464H292.576a10.464 10.464 0 0 0-10.464 10.464v250.784c0 5.76 4.672 10.464 10.464 10.464z m62.688 303.008a31.36 31.36 0 0 0 3.136-62.56h-0.128l-3.008-0.16H229.888a31.36 31.36 0 0 0-3.136 62.56h0.128l3.008 0.16h125.376z"  horiz-adv-x="1024" />
      
      <glyph glyph-name="caozuorizhi" unicode="&#58897;" d="M801.312 842.656c63.008 0 113.568-52.416 115.936-117.088l0.096-4.736v-673.664c0-65.248-49.024-119.2-111.424-121.76l-4.576-0.096H297.184c-63.04 0-113.568 52.416-115.936 117.088l-0.096 4.768v67.68a32 32 0 0 0 63.84 3.232v-0.128l0.16-3.104v-67.68c0-31.136 21.984-55.872 48.8-57.728l3.232-0.096H801.28c27.168 0 50.208 23.52 51.936 54.112l0.128 3.68V720.832c0 31.136-21.984 55.872-48.8 57.728l-3.232 0.096H297.152c-27.168 0-50.208-23.52-51.936-54.112l-0.096-3.712v-91.52a32 32 0 0 0-63.84-3.232v0.128l-0.16 3.072V720.832c0 65.248 49.024 119.2 111.456 121.76l4.576 0.096h504.096zM213.152 462.56a32 32 0 0 0 31.84-28.8v-0.128l0.16-3.072v-115.936a32 32 0 0 0-63.84-3.232v0.128l-0.16 3.072v115.936a32 32 0 0 0 32 32z m469.504-35.904a32 32 0 0 0 3.232-63.84h-0.128l-3.072-0.16h-256a32 32 0 0 0-3.2 63.84h0.128l3.072 0.16h256z m0-213.312a32 32 0 0 0 3.232-63.84h-0.128l-3.072-0.16h-256a32 32 0 0 0-3.2 63.84h0.128l3.072 0.16h256z m0 426.656a32 32 0 0 0 3.232-63.84h-0.128l-3.072-0.16h-256a32 32 0 0 0-3.2 63.84h0.128L426.688 640h256zM256 565.344a32 32 0 0 0 3.2-63.84h-0.128L256 501.344H149.344a32 32 0 0 0-3.232 63.84h0.128l3.072 0.16h106.656z m0-320a32 32 0 0 0 3.2-63.84h-0.128L256 181.344H149.344a32 32 0 0 0-3.232 63.84h0.128l3.072 0.16h106.656z"  horiz-adv-x="1056" />
      
      <glyph glyph-name="del1" unicode="&#58898;" d="M512 445.792L285.536 672.32a43.68 43.68 0 1 1-61.792-61.792L450.176 384l-226.528-226.464a43.68 43.68 0 1 1 61.792-61.792l226.592 226.432 226.464-226.528a43.68 43.68 0 1 1 61.792 61.792l-226.432 226.592 226.528 226.464a43.68 43.68 0 1 1-61.792 61.792L512 445.856z"  horiz-adv-x="1024" />
      
      <glyph glyph-name="cuowu_shibai" unicode="&#58899;" d="M659.552 521.088a31.264 31.264 0 0 0 2.112-41.984l0.032 0.064-2.144-2.368-250.784-250.784a31.328 31.328 0 0 0-46.464 42.016l-0.032-0.064 2.144 2.368 250.784 250.784a31.264 31.264 0 0 0 44.352 0z m0-250.784a31.36 31.36 0 0 0-42.016-46.432l0.064-0.032-2.368 2.144-250.784 250.784a31.328 31.328 0 0 0 42.016 46.464l-0.064 0.032 2.368-2.144 250.784-250.784zM512 822.848c-248.128 0-449.312-201.152-449.312-449.312S263.84-75.776 512-75.776s449.312 201.152 449.312 449.312S760.16 822.848 512 822.848z m0-62.688c213.504 0 386.624-173.088 386.624-386.624S725.536-13.088 512-13.088 125.376 160 125.376 373.536 298.464 760.16 512 760.16z"  horiz-adv-x="1024" />
      
      <glyph glyph-name="dianzan" unicode="&#58900;" d="M902.24 717.792l4.8-4.8a264.192 264.192 0 0 0 0-368.512L509.44-64l-2.88 2.944-0.096-0.096L116.96 339.008a264.192 264.192 0 0 0 0 368.512 250.24 250.24 0 0 0 353.888 4.768l4.8-4.768 33.696-34.624 39.072 40.096a250.24 250.24 0 0 0 353.888 4.8z m-44.608-45.856a185.6 185.6 0 0 1-129.92 52.768c-50.144 0-95.68-19.84-129.184-52.064l0.064 0.064-4.384-4.352-84.896-87.2-83.104 85.312a185.632 185.632 0 0 1-129.92 52.8 185.632 185.632 0 0 1-133.44-56.32l-0.032-0.032a199.552 199.552 0 0 1-56.736-139.616c0-52.128 19.936-99.616 52.608-135.232l-0.128 0.16 4.256-4.544 346.592-355.872 351.776 361.376a199.552 199.552 0 0 1 56.736 139.616 199.392 199.392 0 0 1-52.608 135.232l0.128-0.16-4.256 4.544-3.552 3.552z"  horiz-adv-x="1024" />
      
      <glyph glyph-name="didian_dingwei" unicode="&#58901;" d="M512 650.656a160 160 0 0 1 0-320 160 160 0 0 1 0 320z m0-64a96 96 0 1 0 0-192 96 96 0 1 0 0 192zM512 864C298.624 864 138.656 705.504 138.656 479.36c0-154.784 117.856-342.4 351.168-566.432a31.968 31.968 0 0 1 44.352 0c233.312 224.032 351.168 411.68 351.168 566.432C885.344 705.504 725.376 864 512 864z m0-64c178.176 0 309.344-129.984 309.344-320.64l-0.096-6.144c-3.168-125.728-102.944-288.32-301.408-484.896l-7.84-7.68-7.84 7.68C302.464 188.16 202.656 352.832 202.656 479.36 202.656 670.016 333.824 800 512 800z"  horiz-adv-x="1024" />
      
      <glyph glyph-name="dingshirenwu" unicode="&#58903;" d="M652.032-74.08c-155.264 0-281.536 126.304-281.536 281.6 0 155.264 126.304 281.536 281.536 281.536 155.296 0 281.6-126.304 281.6-281.536 0-155.296-126.304-281.6-281.6-281.6z m0 504.224a222.88 222.88 0 0 1-222.656-222.656c0-122.816 99.872-222.72 222.656-222.72a223.008 223.008 0 0 1 222.72 222.72c0 122.816-99.904 222.656-222.72 222.656zM784 144h-128a32 32 0 0 0-32 32v160a32 32 0 0 0 64 0v-128h96a32 32 0 0 0 0-64z m-480-192h-128a32 32 0 0 0-32 32v768a32 32 0 0 0 32 32h672a32 32 0 0 0 32-32v-96a32 32 0 0 0-64 0v64h-608v-704h96a32 32 0 0 0 0-64z m480 576h-256a32 32 0 0 0 0 64h256a32 32 0 0 0 0-64z"  horiz-adv-x="1024" />
      
      <glyph glyph-name="dingdan" unicode="&#58904;" d="M762.784 822.848H261.248a114.944 114.944 0 0 1-114.944-114.944v-668.736a114.944 114.944 0 0 1 114.944-114.944h501.536a114.944 114.944 0 0 1 114.944 114.944V707.904a114.944 114.944 0 0 1-114.944 114.944zM261.216 760.16h501.536c28.864 0 52.256-23.392 52.256-52.256v-668.736c0-28.864-23.392-52.256-52.256-52.256H261.216a52.256 52.256 0 0 0-52.256 52.256V707.904c0 28.864 23.392 52.256 52.256 52.256z m417.952-198.528a31.36 31.36 0 0 0 3.136-62.56h-0.128l-3.008-0.16H344.8a31.36 31.36 0 0 0-3.136 62.56h0.128l3.008 0.16h334.368zM512 373.536a31.36 31.36 0 0 0 3.136-62.56h-0.128l-3.008-0.16h-167.168a31.36 31.36 0 0 0-3.136 62.56h0.128l3.008 0.16h167.2z"  horiz-adv-x="1024" />
      
      <glyph glyph-name="dianzaner" unicode="&#58905;" d="M654.688 804.512c81.76-36.288 81.76-124.96 0-265.984h210.496a83.584 83.584 0 0 0 82.496-97.184l0.064 0.48-59.424-373.952a83.68 83.68 0 0 0-82.528-70.464H146.304a83.584 83.584 0 0 0-83.584 83.584V454.944a83.584 83.584 0 0 0 83.584 83.584h144.768a167.168 167.168 0 0 1 148.8 90.88l0.448 0.928c74.048 146.688 145.536 204.736 214.4 174.176z m-25.44-57.312c-25.92 11.488-68.768-22.08-125.952-131.36l-7.072-13.76c-37.728-73.536-112-123.584-198.176-126.144h-0.352l-6.688-0.096H146.304a20.896 20.896 0 0 1-20.736-18.368v-0.096l-0.16-2.432v-373.952c0-10.688 8-19.488 18.368-20.736h0.096l2.432-0.16H805.76c9.568 0 17.6 6.4 20.096 15.168l0.032 0.16 0.512 2.304 59.456 373.952a20.864 20.864 0 0 1-18.112 24h-0.096l-2.432 0.16H654.72c-48.32 0-78.464 52.32-54.24 94.112l7.168 12.544c57.344 102.304 57.184 147.168 23.712 163.744l-2.048 0.96zM302.432 526.848v-495.008H239.744V526.848z"  horiz-adv-x="1024" />
      
      <glyph glyph-name="End" unicode="&#58907;" d="M512-128C229.888-128 0 101.888 0 384S229.888 896 512 896s512-229.888 512-512-229.888-512-512-512z m0 985.6C250.88 857.6 38.4 645.12 38.4 384S250.88-89.6 512-89.6 985.6 122.88 985.6 384 773.12 857.6 512 857.6z m164.352-668.16h-305.664c-10.24 0-19.968 4.096-26.624 11.264a38.08 38.08 0 0 0-11.264 26.624v306.688c0 10.24 4.096 19.968 11.264 26.624a38.08 38.08 0 0 0 26.624 11.264h306.176c10.24 0 19.968-4.096 26.624-11.264 7.168-7.168 11.264-16.896 11.264-26.624v-306.176c0-10.24-4.096-19.968-11.264-26.624-7.168-7.68-17.408-11.776-27.136-11.776z"  horiz-adv-x="1024" />
      
      <glyph glyph-name="butixing" unicode="&#58908;" d="M774.144 661.664a375.488 375.488 0 0 0 51.648-182.24l0.128-9.856-0.032-242.528 93.216-80.544c21.216-18.336 9.408-52.672-17.664-54.976l-2.848-0.096H229.856a31.36 31.36 0 0 0-3.136 62.56h0.128l3.008 0.16H814.4l-40.32 34.848a32.096 32.096 0 0 0-8 10.592l-0.096 0.192a30.432 30.432 0 0 0-2.624 9.792v0.128l-0.16 3.008v256.864a313.696 313.696 0 0 1-43.04 160.128 31.36 31.36 0 0 0 53.888 32.128l0.064-0.128z m-270.848 161.184c48.736 0 96-11.872 139.04-34.4a31.392 31.392 0 0 0-29.248-55.456l0.192-0.096a232.704 232.704 0 0 1-109.984 27.232c-140.8 0-256.576-125.76-259.872-283.712l-0.096-6.912v-120.256a31.36 31.36 0 0 0-62.56-3.168v0.128l-0.16 3.04v120.256c0 194.464 143.712 353.312 322.656 353.312zM386.624 143.68c0-75.872 52.448-135.84 114.944-135.84 61.056 0 112.544 57.248 114.848 130.688l0.096 5.152h62.688c0-108.768-78.528-198.528-177.632-198.528-97.344 0-174.816 86.592-177.536 192.736l-0.096 5.824h62.688zM730.176 792.768a31.36 31.36 0 0 0 46.432-42.016l0.032 0.064-2.144-2.368L126.656 100.608a31.328 31.328 0 0 0-46.464 42.016l-0.032-0.064 2.144 2.368L730.144 792.768z"  horiz-adv-x="1024" />
      
      <glyph glyph-name="guanji_tuichu" unicode="&#58910;" d="M211.552 682.592a31.36 31.36 0 0 0 44.352-44.352c-134.656-134.656-134.656-352.96 0-487.648s352.96-134.656 487.648 0 134.656 352.96 0 487.648a31.36 31.36 0 0 0 44.352 44.352c159.136-159.168 159.136-417.152 0-576.288s-417.152-159.168-576.32 0c-159.136 159.136-159.136 417.152 0 576.288zM512 822.848a31.36 31.36 0 0 0 31.2-28.192v-0.128l0.16-3.008v-417.952a31.36 31.36 0 0 0-62.56-3.136v0.128l-0.16 3.008V791.52a31.36 31.36 0 0 0 31.36 31.36z"  horiz-adv-x="1024" />
      
      <glyph glyph-name="erweima" unicode="&#58911;" d="M355.264 822.848H188.096a114.944 114.944 0 0 1-114.944-114.944v-167.168a114.944 114.944 0 0 1 114.944-114.944h167.168a114.944 114.944 0 0 1 114.944 114.944V707.904a114.944 114.944 0 0 1-114.944 114.944zM188.096 760.16h167.168c28.864 0 52.256-23.392 52.256-52.256v-167.168c0-28.864-23.392-52.256-52.256-52.256H188.096a52.256 52.256 0 0 0-52.256 52.256V707.904c0 28.864 23.392 52.256 52.256 52.256z m647.808 62.688h-167.168a114.944 114.944 0 0 1-114.944-114.944v-167.168a114.944 114.944 0 0 1 114.944-114.944h167.168a114.944 114.944 0 0 1 114.944 114.944V707.904a114.944 114.944 0 0 1-114.944 114.944z m-167.168-62.688h167.168c28.864 0 52.256-23.392 52.256-52.256v-167.168c0-28.864-23.392-52.256-52.256-52.256h-167.168a52.256 52.256 0 0 0-52.256 52.256V707.904c0 28.864 23.392 52.256 52.256 52.256z m167.168-397.056h-167.168a114.944 114.944 0 0 1-114.944-114.944v-167.168a114.944 114.944 0 0 1 114.944-114.944h167.168a114.944 114.944 0 0 1 114.944 114.944v167.168a114.944 114.944 0 0 1-114.944 114.944z m-167.168-62.688h167.168c28.864 0 52.256-23.392 52.256-52.256v-167.168c0-28.864-23.392-52.256-52.256-52.256h-167.168a52.256 52.256 0 0 0-52.256 52.256v167.168c0 28.864 23.392 52.256 52.256 52.256z m-208.992 52.224a31.36 31.36 0 0 0 3.136-62.56h-0.128l-3.008-0.16H125.376a31.36 31.36 0 0 0-3.136 62.56h0.128l3.008 0.16h334.368z m-177.632-94.016a31.36 31.36 0 0 0 31.2-28.192v-0.128l0.16-3.008v-125.376a31.36 31.36 0 0 0-62.56-3.136v0.128l-0.16 3.008v125.376a31.36 31.36 0 0 0 31.36 31.36z m167.2 0a31.36 31.36 0 0 0 31.2-28.192v-0.128l0.16-3.008v-208.992a31.36 31.36 0 0 0-62.56-3.136v0.128l-0.16 3.008v208.992a31.36 31.36 0 0 0 31.36 31.36z m-313.472 0a31.36 31.36 0 0 0 31.2-28.192v-0.128l0.16-3.008v-208.992a31.36 31.36 0 0 0-62.56-3.136v0.128l-0.16 3.008v208.992a31.36 31.36 0 0 0 31.36 31.36z"  horiz-adv-x="1024" />
      
      <glyph glyph-name="fork" unicode="&#58916;" d="M533.632 593.28h211.456v-90.752a28.48 28.48 0 0 1 42.656-0.032l0.032 0.032 161.92 106.624c12.8 8.64 12.8 25.472 0 38.592l-161.92 110.72a28.48 28.48 0 0 1-42.656 0.032l-0.032-0.032v-79.872h-254.08l-170.624-298.56H149.76v-0.448H106.624c-21.312 0-42.624-21.312-42.624-42.688 0-21.312 21.312-42.624 42.624-42.624h256v0.448h0.832l170.304 298.56z m254.08-384.768a28.544 28.544 0 0 1-42.592 0.032l-0.032-0.032v-84.416h-126.08l-128 213.312-42.688-85.312s119.36-200.576 128-213.312h168.768v-86.208a28.48 28.48 0 0 1 42.656-0.032l0.032 0.032 161.92 106.624c12.8 8.64 12.8 25.408 0 38.592l-161.92 110.72z"  horiz-adv-x="1024" />
      
      <glyph glyph-name="fangda" unicode="&#58917;" d="M165.28 14.752a31.36 31.36 0 0 0-46.464 42.048l-0.032-0.064 2.144 2.368 292.576 292.576a31.36 31.36 0 0 0 46.464-42.048l0.032 0.064-2.144-2.368-292.576-292.576zM845.728 783.872a31.36 31.36 0 0 0 46.432-42.016l0.032 0.064-2.144-2.368-292.576-292.576a31.36 31.36 0 0 0-46.432 42.016l-0.032-0.064 2.144 2.368 292.576 292.576zM125.824-11.712a31.36 31.36 0 0 0-31.2 28.192v0.128l-0.16 3.008v292.576a31.36 31.36 0 0 0 62.56 3.136v-0.128l0.16-3.008v-292.576a31.36 31.36 0 0 0-31.36-31.36z m759.36 822.08a31.36 31.36 0 0 0 31.2-28.192v-0.128l0.16-3.008v-292.8a31.36 31.36 0 0 0-62.56-2.912v0.128l-0.128 3.04V779.072a31.36 31.36 0 0 0 31.36 31.36zM129.888-11.712h-0.224a31.36 31.36 0 0 0-2.944 62.56h0.128l3.008 0.128h292.576a31.36 31.36 0 0 0 3.136-62.56h-0.128l-3.008-0.16H129.856zM881.152 810.336a31.36 31.36 0 0 0 3.136-62.56h-0.128l-3.008-0.16h-292.576a31.36 31.36 0 0 0-3.168 62.56h0.128l3.04 0.16h292.576z"  horiz-adv-x="1024" />
      
      <glyph glyph-name="fenxianger" unicode="&#58918;" d="M239.264 647.808c-121.216 0-219.424-98.24-219.424-219.424s98.208-219.424 219.424-219.424c121.184 0 219.424 98.208 219.424 219.424s-98.24 219.424-219.424 219.424z m0-62.72a156.736 156.736 0 0 0 0-313.472 156.736 156.736 0 0 0 0 313.472z m574.688-282.112a177.6 177.6 0 1 1 0-355.264 177.6 177.6 0 1 1 0 355.264z m0-62.688a114.944 114.944 0 1 0 0-229.888 114.944 114.944 0 1 0 0 229.888zM803.52 814.976a156.736 156.736 0 0 1 0-313.472 156.736 156.736 0 0 1 0 313.472z m0-62.688a94.08 94.08 0 0 0 0-188.096 94.08 94.08 0 0 0 0 188.096z m-137.696-130.688a31.36 31.36 0 0 0 33.728-52.736l-0.096-0.064-2.56-1.632-254.016-145.152a31.36 31.36 0 0 0-33.76 52.768l0.096 0.064 2.56 1.632 254.016 145.152z m-265.696-261.28a31.392 31.392 0 0 0 40.288 12.96l-0.192 0.096 2.688-1.376 254.016-145.152a31.36 31.36 0 0 0-28.64-55.712l0.192-0.096-2.688 1.344-254.016 145.152a31.392 31.392 0 0 0-11.584 42.944l-0.064-0.16z"  horiz-adv-x="1024" />
      
      <glyph glyph-name="gaibanxianxingtubiao-" unicode="&#58919;" d="M414.016 488h-0.032a31.936 31.936 0 0 0-26.752 14.464l-0.064 0.128-66.496 102.432H182.048a32 32 0 0 0 0 64h147.392c16.768 0 31.52-8.608 40.064-21.664l0.128-0.192 71.264-109.728a32 32 0 0 0-26.848-49.44z m48-76.992a40 40 0 0 1 80 0 40 40 0 0 1-80 0z m483.488 23.488l-115.072 115.072v-106.592H683.52a64.16 64.16 0 0 1-55.36-31.84l-0.16-0.288-158.752-276.736-287.264 1.888h-0.096a32 32 0 0 1-0.096-64l296.704-1.952a48.032 48.032 0 0 1 41.504 23.872l0.128 0.224 163.424 284.832h146.912v-105.184l115.072 115.072a32.16 32.16 0 0 1 0 45.632z"  horiz-adv-x="1024" />
      
      <glyph glyph-name="gonggao_tongzhi" unicode="&#58921;" d="M650.656 0.128V767.872c0 20.48-8.256 39.04-21.6 52.512l-3.2 3.04a74.4 74.4 0 0 1-49.888 19.104c-20.48 0-39.04-8.256-52.544-21.6L314.816 614.496H149.28a74.656 74.656 0 0 1-74.656-74.656v-316.256l0.096-4.096a74.72 74.72 0 0 1 74.56-70.56l170.208 0.032 203.936-201.856a74.656 74.656 0 0 1 127.168 53.056z m-64 767.744v-767.744a10.656 10.656 0 0 0-18.176-7.552l-213.248 211.104a31.872 31.872 0 0 1-22.496 9.248H149.344a10.656 10.656 0 0 0-10.656 10.656V539.84c0 5.888 4.768 10.656 10.656 10.656h178.72a31.936 31.936 0 0 1 22.496 9.248l217.92 215.68a10.656 10.656 0 0 0 18.176-7.552z m132.768-240.128a32 32 0 0 0 43.776 12.032l-0.16 0.096c48.8-27.616 79.648-78.304 79.648-134.368 0-56.352-31.168-107.296-80.416-134.784a32 32 0 0 0-31.328 55.808l0.16 0.096c29.344 16.384 47.584 46.176 47.584 78.88 0 32.512-18.016 62.176-47.136 78.624a32 32 0 0 0-12.032 43.776l-0.096-0.16z m42.016 125.824a32.032 32.032 0 0 0 42.752 15.328l-0.192 0.096a290.368 290.368 0 0 0 166.688-263.392 290.4 290.4 0 0 0-167.904-263.968 32 32 0 0 0-27.072 58.016l0.192 0.096a226.368 226.368 0 0 1 130.784 205.856 226.432 226.432 0 0 1-129.792 205.44 32.032 32.032 0 0 0-15.328 42.752l-0.096-0.192z"  horiz-adv-x="1056" />
      
      <glyph glyph-name="huiyuan" unicode="&#58922;" d="M496.128 788.992l-179.872-248.256-216.384 131.296c-25.44 15.456-56.064-9.92-45.6-37.792l188.096-501.536c4.576-11.968 16-20.32 29.344-20.32h501.536a31.36 31.36 0 0 1 29.28 20.128l0.064 0.224 188.096 501.536 0.864 2.624c7.712 26.944-22.144 50.336-46.784 35.008l-210.848-131.136-187.36 248.768a31.36 31.36 0 0 1-50.368-0.384l-0.064-0.096z m25.856-71.136l179.104-237.792 1.92-2.304a31.264 31.264 0 0 1 39.808-5.376l-0.128-0.064 156.864 97.6-148.096-394.912H293.344L144.672 571.456l163.712-99.328a31.264 31.264 0 0 1 41.568 8.32l0.064 0.096 171.904 237.312z m230.336-678.688a31.36 31.36 0 0 0 3.136-62.56h-0.128l-3.008-0.16H292.576a31.36 31.36 0 0 0-3.136 62.56h0.128l3.008 0.16H752.32z"  horiz-adv-x="1024" />
      
      <glyph glyph-name="icon" unicode="&#58923;" d="M48.128 779.264v-729.088h927.744V779.264H48.128z m48.128-45.056h829.44v-176.128h-12.288v-50.176h12.288v-186.368h-12.288v-50.176h12.288v-173.056H96.256V271.36h17.408v50.176h-17.408v186.368h17.408V558.08h-17.408V734.208zM163.84 558.08v-50.176h100.352V558.08H163.84z m150.528 0v-50.176h99.328V558.08H314.368z m149.504 0v-50.176h100.352V558.08h-100.352z m150.528 0v-50.176h99.328V558.08H614.4z m149.504 0v-50.176h100.352V558.08h-100.352zM163.84 321.536v-50.176h100.352v50.176H163.84z m150.528 0v-50.176h99.328v50.176H314.368z m149.504 0v-50.176h100.352v50.176h-100.352z m150.528 0v-50.176h99.328v50.176H614.4z m149.504 0v-50.176h100.352v50.176h-100.352z"  horiz-adv-x="1024" />
      
      <glyph glyph-name="huidaodingbu" unicode="&#58924;" d="M197.28 288.704a31.264 31.264 0 0 0-2.112 41.984l-0.032-0.064 2.144 2.368 292.576 292.576a31.328 31.328 0 0 0 46.464-42.016l0.032 0.064-2.144-2.368-292.576-292.576a31.264 31.264 0 0 0-44.352 0z m292.576 292.576a31.36 31.36 0 0 0 42.016 46.432l-0.064 0.032 2.368-2.144 292.576-292.576a31.328 31.328 0 0 0-42.016-46.464l0.064-0.032-2.368 2.144-292.576 292.576zM512 616.896a31.36 31.36 0 0 0 31.2-28.192v-0.128l0.16-3.04v-585.152a31.36 31.36 0 0 0-62.56-3.136v0.128l-0.16 3.008V585.536a31.36 31.36 0 0 0 31.36 31.36z m250.784 70.112a31.36 31.36 0 0 0 3.136-62.56h-0.128l-3.008-0.16H261.248a31.36 31.36 0 0 0-3.136 62.56h0.128l3.008 0.16h501.536z"  horiz-adv-x="1024" />
      
      <glyph glyph-name="jiangbei" unicode="&#58925;" d="M795.2 645.696a160 160 0 0 0 5.472-319.872h-0.288l-5.184-0.096h-23.104v64h23.104a96 96 0 0 1 4.768 191.872h-0.224l-4.512 0.096h-23.104v64h23.104z m-548.288 0v-64h-27.744a96 96 0 0 1-4.736-191.872h0.224l4.512-0.096h28.8v-64h-28.8a160 160 0 0 0-5.472 319.872h0.288l5.152 0.096h27.744zM704 842.656H341.344A117.344 117.344 0 0 1 224 725.312v-330.656a298.656 298.656 0 1 1 597.312 0V725.312a117.344 117.344 0 0 1-117.344 117.344z m-362.656-64H704c29.44 0 53.344-23.872 53.344-53.344v-330.656a234.656 234.656 0 1 0-469.312 0V725.312c0 29.44 23.872 53.344 53.344 53.344z m181.312-640a32 32 0 0 0 31.84-28.8v-0.128l0.16-3.072v-128a32 32 0 0 0-63.84-3.232v0.128l-0.16 3.072v128a32 32 0 0 0 32 32z m224-138.656a32 32 0 0 0 3.232-63.84h-0.128l-3.072-0.16h-448a32 32 0 0 0-3.2 63.84h0.128L298.688 0h448z"  horiz-adv-x="1024" />
      
      <glyph glyph-name="liebiao" unicode="&#58926;" d="M42.656 693.344a32 32 0 0 1 64 0 32 32 0 0 1-64 0z m0-298.688a32 32 0 0 1 64 0 32 32 0 0 1-64 0z m0 298.688a32 32 0 0 1 64 0 32 32 0 0 1-64 0z m0-618.688a32 32 0 0 1 64 0 32 32 0 0 1-64 0z m896 32a32 32 0 0 0 3.232-63.84h-0.128l-3.072-0.16H256.032a32 32 0 0 0-3.232 63.84h0.128L256 106.656h682.656z m0 618.688a32 32 0 0 0 3.232-63.84h-0.128l-3.072-0.16H256.032A32 32 0 0 0 252.8 725.184h0.128L256 725.344h682.656z m0 0a32 32 0 0 0 3.232-63.84h-0.128l-3.072-0.16H256.032A32 32 0 0 0 252.8 725.184h0.128L256 725.344h682.656z m0-298.688a32 32 0 0 0 3.232-63.84h-0.128l-3.072-0.16H256.032a32 32 0 0 0-3.232 63.84h0.128L256 426.656h682.656z"  horiz-adv-x="1024" />
      
      <glyph glyph-name="guanbi" unicode="&#58928;" d="M815.36 688.288a31.264 31.264 0 0 0 2.112-41.984l0.032 0.064-2.144-2.368L283.36 112.032a31.328 31.328 0 0 0-46.464 42.016l-0.032-0.064 2.144 2.368L771.008 688.32a31.264 31.264 0 0 0 44.352 0z m0-531.968a31.36 31.36 0 0 0-42.048-46.464l0.064-0.032-2.368 2.144L239.04 643.968a31.328 31.328 0 0 0 42.016 46.464l-0.064 0.032 2.368-2.144 531.968-531.968z"  horiz-adv-x="1024" />
      
      <glyph glyph-name="jifen" unicode="&#58929;" d="M773.984 520.928l-0.64-0.672c-54.016-53.024-152.384-87.264-261.344-87.264-109.344 0-208.064 34.496-262.304 88.224a31.264 31.264 0 0 1-44.096 0c-38.144-37.76-59.296-82.688-59.296-130.368 0-134.784 165.952-236.704 365.728-236.704s365.728 101.92 365.728 236.704c0 47.648-21.152 92.576-59.296 130.368a31.36 31.36 0 0 1-44.416-0.256zM230.848 454.624l3.552-2.72c68.448-51.424 169.184-81.6 277.6-81.6l9.792 0.096c104.256 1.76 200.608 31.424 267.008 80.928l4.32 3.296 1.504-2.08c13.504-19.776 20.384-40.64 20.384-61.664 0-92.064-133.44-174.016-303.008-174.016s-303.008 81.952-303.008 174.016c0 21.056 6.88 41.888 20.384 61.664l1.472 2.112z m543.136-142.688l-0.64-0.672C719.328 258.24 620.96 224 512 224c-109.344 0-208.064 34.496-262.304 88.224a31.264 31.264 0 0 1-44.096 0c-38.144-37.76-59.296-82.688-59.296-130.368 0-134.784 165.952-236.704 365.728-236.704s365.728 101.92 365.728 236.704c0 47.648-21.152 92.576-59.296 130.368a31.36 31.36 0 0 1-44.416-0.256zM230.848 245.632l3.552-2.72c68.448-51.424 169.184-81.6 277.6-81.6l9.792 0.096c104.256 1.76 200.608 31.424 267.008 80.928l4.32 3.296 1.504-2.08c13.504-19.776 20.384-40.64 20.384-61.664 0-92.064-133.44-174.016-303.008-174.016s-303.008 81.952-303.008 174.016c0 21.056 6.88 41.888 20.384 61.664l1.472 2.112zM512 822.848c-199.712 0-365.728-98.56-365.728-229.888S312.256 363.072 512 363.072s365.728 98.56 365.728 229.888S711.744 822.848 512 822.848z m0-62.688c169.6 0 303.008-79.2 303.008-167.168S681.6 425.824 512 425.824s-303.008 79.2-303.008 167.168S342.4 760.16 512 760.16z"  horiz-adv-x="1024" />
      
      <glyph glyph-name="fenxiang" unicode="&#58930;" d="M738.592 801.92a32.064 32.064 0 0 0 39.36 17.856l-0.224 0.064 2.912-1.088 149.344-64a32 32 0 1 0-22.528-59.84l0.224-0.064-2.912 1.056-149.344 64a32 32 0 0 0-16.736 42.24l-0.096-0.192z m179.264-44.576l3.072-0.224a32 32 0 0 0 28.128-31.776v-0.832 0.032l-0.224-3.072-20.8-170.656a32 32 0 0 0-63.808 3.52l0.032 1.184v-0.064l0.256 3.072 20.768 170.656c1.984 15.936 15.456 28.16 31.776 28.16h0.864-0.032z m-406.08 21.312a32 32 0 0 0 3.232-63.84h-0.128l-3.104-0.16H213.312c-28.224 0-51.328-21.92-53.216-49.664v-0.16L160 661.344V64c0-28.224 21.92-51.328 49.664-53.216h0.16l3.488-0.096h597.344c28.224 0 51.328 21.92 53.216 49.664v0.16l0.096 3.488v295.264a32 32 0 0 0 63.84 3.232v-0.128l0.16-3.072v-295.264a117.344 117.344 0 0 0-112.384-117.216h-0.224l-4.704-0.096H213.312a117.344 117.344 0 0 0-117.216 112.384v0.224L96 64.032V661.376a117.344 117.344 0 0 0 112.384 117.216h0.224l4.704 0.096h298.464zM886.016 734.4a32 32 0 0 0 20.192-60.736l-0.224-0.064c-153.12-50.336-268.32-164.384-320.992-321.12a32 32 0 1 0-60.608 20.64l-0.064-0.224c59.104 175.904 189.44 304.928 361.696 361.536z"  horiz-adv-x="1056" />
      
      <glyph glyph-name="jianshao" unicode="&#58931;" d="M512 842.656C258.688 842.656 53.344 637.312 53.344 384S258.688-74.656 512-74.656 970.656 130.688 970.656 384 765.312 842.656 512 842.656z m0-64c217.952 0 394.656-176.704 394.656-394.656S729.952-10.656 512-10.656 117.344 166.048 117.344 384 294.048 778.656 512 778.656zM682.656 416a32 32 0 0 0 3.232-63.84h-0.128l-3.072-0.16H341.344a32 32 0 0 0-3.2 63.84h0.128l3.072 0.16h341.344z"  horiz-adv-x="1056" />
      
      <glyph glyph-name="jichupeizhi" unicode="&#58932;" d="M973.152 477.088l-102.4 9.312a569.6 569.6 0 0 1-32.576 79.136l69.824 79.136c9.312 9.312 13.952 23.264 13.952 37.248s-4.64 27.936-13.952 37.248l-60.512 60.512c-18.624 18.624-55.84 18.624-74.464 0l-83.776-69.824c-23.264 13.952-46.56 23.264-74.464 32.576l-9.312 102.4c0 27.936-23.264 51.2-51.2 51.2h-83.776c-27.936 0-51.2-23.264-51.2-51.2l-9.312-107.04c-27.936-9.312-51.2-18.624-74.464-32.576L256.384 775.04c-23.264 18.624-55.84 18.624-74.464 0L121.408 714.528c-23.264-18.624-23.264-51.2 0-69.824l65.152-79.136c-13.952-23.264-27.936-51.2-37.248-79.136L51.552 477.12c-27.936 0-51.2-23.264-51.2-51.2v-83.776c0-27.936 23.264-51.2 51.2-51.2l93.088-4.64c9.312-32.576 18.624-60.512 32.576-88.448l-60.512-65.152c-18.624-18.624-18.624-55.84 0-74.464l60.512-60.512c18.624-18.624 55.84-18.624 74.464 0l65.152 55.84c27.936-18.624 60.512-27.936 93.088-37.248l9.312-93.088c0-27.936 23.264-51.2 51.2-51.2h83.776c27.936 0 51.2 23.264 51.2 51.2l4.64 88.448c32.576 9.312 60.512 23.264 88.448 37.248l65.152-55.84c18.624-18.624 55.84-18.624 74.464 0l60.512 60.512c18.624 18.624 18.624 55.84 0 74.464l-55.84 69.824c13.952 27.936 23.264 55.84 32.576 83.776l93.088 4.64c27.936 0 51.2 23.264 51.2 51.2v83.776c4.64 32.576-18.624 55.84-46.56 55.84z m-13.952-125.664l-111.712-9.312c-13.952 0-27.936-13.952-27.936-27.936a234.752 234.752 0 0 0-41.888-107.04c-9.312-13.952-4.64-27.936 4.64-37.248l69.824-83.776-46.56-46.56-79.136 69.824c-9.312 9.312-27.936 9.312-37.248 0-32.576-23.264-69.824-41.888-111.712-46.56-13.952-4.64-23.264-13.952-23.264-27.936l-4.64-102.4h-65.152l-4.64 102.4c0 13.952-9.312 27.936-27.936 27.936-41.888 9.312-79.136 23.264-111.712 46.56-13.952 9.312-27.936 9.312-37.248-4.64l-79.136-69.824-46.56 46.56 69.824 79.136c9.312 9.312 9.312 27.936 4.64 37.248-23.264 32.576-37.248 69.824-41.888 111.712a41.984 41.984 0 0 1-27.936 27.936l-107.04 9.312v65.152l111.712 9.312c13.952 0 27.936 9.312 27.936 23.264 9.312 37.248 23.264 69.824 46.56 102.4 9.312 13.952 9.312 27.936 0 37.248L172.544 677.28 219.104 723.84l93.088-79.136c9.312-9.312 27.936-9.312 37.248-4.64 32.576 18.624 65.152 32.576 102.4 41.888 13.952 4.64 23.264 13.952 23.264 27.936l9.312 121.024h65.152l4.64-121.024c0-13.952 9.312-27.936 23.264-27.936 37.248-9.312 69.824-23.264 97.76-41.888 13.952-9.312 27.936-4.64 37.248 4.64l93.088 79.136 46.56-46.56-79.136-88.448c-9.312-9.312-9.312-27.936-4.64-37.248 18.624-32.576 37.248-65.152 46.56-102.4 4.64-13.952 13.952-23.264 27.936-23.264l116.352-9.312v-65.152zM512.352 579.488c-107.04 0-195.488-88.448-195.488-195.488s88.448-200.16 195.488-200.16 195.488 88.448 195.488 200.16S619.392 579.488 512.352 579.488z m0-330.464c-74.464 0-134.976 60.512-134.976 134.976s60.512 134.976 134.976 134.976 134.976-60.512 134.976-134.976-60.512-134.976-134.976-134.976z"  horiz-adv-x="1024" />
      
      <glyph glyph-name="liuchengsheji" unicode="&#58934;" d="M1047.453068-42.186727h-83.701537v-25.532808c0-17.149856-8.31896-21.373328-20.925384-12.7984l-96.307962 68.151481c-4.15948 4.287464-8.382952 8.63892-8.382952 12.862392 0 4.287464 4.223472 8.510936 8.382952 12.7984l96.307962 68.215473c12.606424 8.446944 20.925384 4.287464 20.925384-4.223472v-34.23572h41.850769v298.586676h-83.637546c-25.148856 0-41.914761 17.021872-41.91476 42.618673 0 25.532808 16.765904 42.682665 41.91476 42.682665h125.488314c25.212848 0 41.850769-17.149856 41.850769-42.682665v-383.76003c0-25.5968-16.63792-42.682665-41.850769-42.682665z m-293.083364-85.301337H335.734033c-46.010249 0-83.637545 38.395201-83.637545 85.301337v85.237346c0 46.906137 37.627297 85.365329 83.637545 85.365329h418.635671c46.138233 0 83.765529-38.459193 83.765529-85.365329v-85.237346c0-46.906137-37.627297-85.301337-83.765529-85.301337z m-83.701538 170.538683c-25.084864 0-41.850769-17.021872-41.850768-42.554681 0-25.5968 16.765904-42.682665 41.850768-42.682665s41.914761 17.085864 41.914761 42.682665c0 25.532808-16.829896 42.554681-41.914761 42.554681z m150.765155 311.321085l-259.551556-136.430947c-4.223472-4.223472-8.446944-4.223472-16.765904-4.223472s-8.31896 0-16.701913 4.223472l-259.615548 136.430947a32.923885 32.923885 0 0 0-18.749656 29.660292v0.255968c0 12.7984 7.231096 24.508936 18.749656 29.884264l259.615548 136.430947c8.382952 4.287464 12.542432 4.287464 16.701913 4.287464 4.223472 0 8.31896 0 16.765904-4.287464l259.551556-136.430947a33.179853 33.179853 0 0 0 0.191976-59.67254l-0.191976-0.095988z m-67.063617 285.788276H335.734033c-46.010249 0-83.637545 38.331209-83.637545 85.237345V810.698663c0 46.906137 37.627297 85.301337 83.637545 85.301337h418.635671c46.138233 0 83.765529-38.395201 83.765529-85.301337v-85.301338c0-46.906137-37.627297-85.237345-83.765529-85.237345z m-334.870141 170.538683c-25.084864 0-41.850769-17.085864-41.850769-42.554681 0-25.660792 16.765904-42.746657 41.850769-42.746657 25.148856 0 41.850769 17.085864 41.850768 42.746657 0 25.468816-16.701912 42.554681-41.850768 42.554681zM147.405574 687.002125c-12.542432-8.510936-20.925384-4.223472-20.925384 12.862392v25.532808H84.629421v-298.458692h83.701538c25.148856 0 41.850769-17.149856 41.850768-42.682665 0-25.5968-16.701912-42.618673-41.850768-42.618673H42.778653c-25.084864 0-41.914761 17.021872-41.914761 42.618673V768.143982c0 25.468816 16.829896 42.554681 41.914761 42.554681h83.701537V844.806399c0 8.510936 8.382952 12.7984 20.925384 4.287464l96.307962-68.215473c4.15948-4.351456 8.382952-8.574928 8.382952-12.734408 0-4.351456-4.223472-8.574928-8.382952-12.926384l-96.307962-68.215473z"  horiz-adv-x="1089" />
      
      <glyph glyph-name="jingyin" unicode="&#58935;" d="M740.192 497.12a31.904 31.904 0 0 0 43.008 2.048l-0.064 0.032 2.272-2.08 181.024-181.024a32 32 0 0 0-43.008-47.296l0.064-0.032-2.272 2.08-181.024 181.024a31.904 31.904 0 0 0 0 45.248z m181.024 0a32 32 0 0 0 47.296-43.008l0.032 0.064-2.08-2.272-181.024-181.024a32 32 0 0 0-47.296 43.008l-0.032-0.064 2.08 2.272 181.024 181.024z m-270.56-496.992V767.872c0 20.48-8.256 39.04-21.6 52.512l-3.2 3.04a74.4 74.4 0 0 1-49.888 19.104c-20.48 0-39.04-8.256-52.544-21.6L314.816 614.496H149.28a74.656 74.656 0 0 1-74.656-74.656v-316.256l0.096-4.096a74.72 74.72 0 0 1 74.56-70.56l170.208 0.032 203.936-201.856a74.656 74.656 0 0 1 127.168 53.056z m-64 767.744v-767.744a10.656 10.656 0 0 0-18.176-7.552l-213.248 211.104a31.872 31.872 0 0 1-22.496 9.248H149.344a10.656 10.656 0 0 0-10.656 10.656V539.84c0 5.888 4.768 10.656 10.656 10.656h178.72a31.936 31.936 0 0 1 22.496 9.248l217.92 215.68a10.656 10.656 0 0 0 18.176-7.552z"  horiz-adv-x="1056" />
      
      <glyph glyph-name="nv" unicode="&#58936;" d="M522.24 619.52C318.656 619.52 153.6 454.464 153.6 250.88s165.056-368.64 368.64-368.64 368.64 165.056 368.64 368.64S725.824 619.52 522.24 619.52z m0-56.736c172.288 0 311.904-139.648 311.904-311.904s-139.616-311.904-311.904-311.904-311.904 139.616-311.904 311.904 139.648 311.904 311.904 311.904zM490.304 876.736a30.624 30.624 0 0 0 41.152 2.08l-0.064 0.032 2.336-2.112 204.8-204.8a30.72 30.72 0 0 0-41.184-45.536l0.064-0.032-2.336 2.112-204.8 204.8a30.624 30.624 0 0 0 0 43.456z m0 0a30.72 30.72 0 0 0 45.504-41.152l0.032 0.064-2.112-2.336-204.8-204.8a30.72 30.72 0 0 0-45.536 41.184l-0.032-0.064 2.112 2.336 204.8 204.8z m31.936-31.936a30.72 30.72 0 0 0 30.56-27.648v-0.128l0.128-2.944V588.8a30.72 30.72 0 0 0-61.28-3.104v0.128l-0.128 2.944v225.28c0 16.96 13.76 30.72 30.72 30.72z"  horiz-adv-x="1024" />
      
      <glyph glyph-name="lishixiangmu_jilu" unicode="&#58937;" d="M512 821.344c-253.312 0-458.656-205.344-458.656-458.656S258.688-95.968 512-95.968s458.656 205.344 458.656 458.656S765.312 821.344 512 821.344z m0-64c217.952 0 394.656-176.704 394.656-394.656S729.952-31.968 512-31.968 117.344 144.736 117.344 362.688 294.048 757.344 512 757.344z m0-106.688a32 32 0 0 0 31.84-28.8v-0.128l0.16-3.072v-298.816a31.84 31.84 0 0 0-8.96-22.208l-2.24-2.144-149.344-127.84a32 32 0 0 0-44 46.368l2.368 2.24 138.144 118.304V618.624a32 32 0 0 0 28.8 31.84h0.128l3.072 0.16z"  horiz-adv-x="1024" />
      
      <glyph glyph-name="pinglun" unicode="&#58938;" d="M835.904 781.056H167.168a114.944 114.944 0 0 1-114.944-114.944v-437.12l0.096-4.608a115.008 115.008 0 0 1 114.848-110.336l38.944 0.032v-137.6l0.128-2.752c2.08-25.184 32.384-37.984 51.936-20.8l183.104 161.12h394.624a114.944 114.944 0 0 1 114.944 114.944V666.08a114.944 114.944 0 0 1-114.944 114.944zM167.168 718.368h668.736c28.864 0 52.256-23.392 52.256-52.256v-437.12c0-28.864-23.392-52.256-52.256-52.256l-409.696-0.16a31.168 31.168 0 0 1-17.472-7.68l0.032 0.032L268.8 45.824v99.552a31.36 31.36 0 0 1-31.36 31.36H167.168a52.256 52.256 0 0 0-52.256 52.256V666.112c0 28.864 23.392 52.256 52.256 52.256z m532.928-135.84a31.36 31.36 0 0 0 3.136-62.56h-0.128l-3.008-0.16H323.936a31.36 31.36 0 0 0-3.136 62.56h0.128l3.008 0.16h376.16z m-114.944-208.992a31.36 31.36 0 0 0 3.136-62.56h-0.128l-3.008-0.16h-250.784a31.36 31.36 0 0 0-3.136 62.56h0.128l3.008 0.16h250.784z"  horiz-adv-x="1024" />
      
      <glyph glyph-name="laji_shanchu" unicode="&#58939;" d="M825.472 697.472H198.528a31.36 31.36 0 0 1-31.36-31.36l0.064-2.048v0.096l36.896-590.368a115.008 115.008 0 0 1 114.72-107.744h386.272a114.944 114.944 0 0 1 114.688 107.424l0.032 0.352 36.896 590.368 0.064 1.952a31.36 31.36 0 0 1-31.36 31.36zM231.904 634.784h560.16l-34.784-557.056a52.288 52.288 0 0 0-52.128-48.992l-389.696 0.096a52.288 52.288 0 0 0-48.704 48.736v0.16L231.936 634.752z m405.472 188.064h-250.784a73.152 73.152 0 0 1-73.152-73.152v-114.944h397.056V749.696a73.152 73.152 0 0 1-73.152 73.152z m0-62.688l1.888-0.16a10.496 10.496 0 0 0 8.576-10.272v-52.256h-271.68V749.728c0 5.76 4.672 10.464 10.464 10.464h250.784z m292.576-52.256a31.36 31.36 0 0 0 3.136-62.56h-0.128l-3.008-0.16H94.048a31.36 31.36 0 0 0-3.136 62.56h0.128l3.008 0.16h835.904z m-512-240.32a31.36 31.36 0 0 0 31.2-28.192v-0.128l0.16-3.008v-208.992a31.36 31.36 0 0 0-62.56-3.136v0.128l-0.16 3.008v208.992a31.36 31.36 0 0 0 31.36 31.36z m208.992 0a31.36 31.36 0 0 0 31.2-28.192v-0.128l0.16-3.008v-208.992a31.36 31.36 0 0 0-62.56-3.136v0.128l-0.16 3.008v208.992a31.36 31.36 0 0 0 31.36 31.36z"  horiz-adv-x="1024" />
      
      <glyph glyph-name="liuchengzhongxin" unicode="&#58940;" d="M928.384 252h-52.8v82.208a74.72 74.72 0 0 1-74.592 74.592h-265.088v107.008h53.792c27.488 0 49.696 22.304 49.696 49.696V718.912c0 27.488-22.304 49.696-49.696 49.696h-153.408c-27.488 0-49.696-22.304-49.696-49.696v-153.312c0-27.488 22.304-49.696 49.696-49.696h49.792v-107.008H224.992A74.72 74.72 0 0 1 150.4 334.304v-82.304H97.6c-27.488 0-49.696-22.304-49.696-49.696v-153.312c0-27.488 22.304-49.696 49.696-49.696h153.312c27.488 0 49.696 22.304 49.696 49.696v153.312c0 27.488-22.304 49.696-49.696 49.696H200.096v82.208a24.96 24.96 0 0 0 24.896 24.896h261.088v-107.008h-49.792c-27.488 0-49.696-22.304-49.696-49.696v-153.408c0-27.488 22.304-49.696 49.696-49.696h153.312c27.488 0 49.696 22.304 49.696 49.696v153.312c0 27.488-22.304 49.696-49.696 49.696h-53.792v107.008h265.184a24.96 24.96 0 0 0 24.896-24.896v-82.112h-50.784c-27.488 0-49.696-22.304-49.696-49.696v-153.312c0-27.488 22.304-49.696 49.696-49.696h153.312c27.488 0 49.696 22.304 49.696 49.696v153.312c0 27.488-22.208 49.696-49.696 49.696zM436.288 718.912h153.312v-153.312h-153.312V718.912zM250.912 48.992H97.6v153.312h153.312v-153.312z m338.784 0h-153.408v153.312h153.312v-153.312h0.096z m338.688 0h-153.312v153.312h153.312v-153.312z"  horiz-adv-x="1024" />
      
      <glyph glyph-name="module" unicode="&#58941;" d="M471.04 684.384H170.656A95.872 95.872 0 0 1 75.072 588.8v-546.144a95.872 95.872 0 0 1 95.584-95.584H716.8a95.872 95.872 0 0 1 95.584 95.584V343.04H471.04V684.384z m-54.624-682.688h-245.76c-22.528 0-40.96 18.432-40.96 40.96v245.76h286.72v-286.72z m341.344 286.72v-245.76c0-22.528-18.432-40.96-40.96-40.96h-245.76v286.72h286.72zM129.696 343.04V588.8c0 22.528 18.432 40.96 40.96 40.96h245.76v-286.72h-286.72zM853.344 820.896H552.96V424.96h395.936V725.344a95.872 95.872 0 0 1-95.584 95.584z m40.96-341.312h-286.72v286.72h245.76c22.528 0 40.96-18.432 40.96-40.96v-245.76z"  horiz-adv-x="1024" />
      
      <glyph glyph-name="jincheng" unicode="&#58942;" d="M422.432-73.92H6.752V885.856h811.104v-310.912c0-10.144-6.752-16.896-16.896-16.896s-16.896 6.752-16.896 16.896v277.12H40.576v-892.192h381.888c10.144 0 16.896-6.752 16.896-16.896s-6.752-16.896-16.896-16.896z m317.696-43.936c-162.208 0-294.016 131.808-294.016 294.016s131.808 294.016 294.016 294.016 294.016-131.808 294.016-294.016-135.168-294.016-294.016-294.016z m0 550.848c-141.952 0-260.224-114.912-260.224-260.224s114.912-260.224 260.224-260.224c141.952 0 260.224 114.912 260.224 260.224s-118.272 260.224-260.224 260.224z m148.704-294.016h-158.848V287.68c0 10.144 6.752 16.896 16.896 16.896s16.896-6.752 16.896-16.896v-114.912h125.056c10.144 0 16.896-6.752 16.896-16.896s-6.752-16.896-16.896-16.896zM608.32 598.592H209.536c-10.144 0-16.896 6.752-16.896 16.896s6.752 16.896 16.896 16.896H608.32c10.144 0 16.896-6.752 16.896-16.896s-6.752-16.896-16.896-16.896z m-273.76-287.264H209.504c-10.144 0-16.896 6.752-16.896 16.896s6.752 16.896 16.896 16.896h125.056c10.144 0 16.896-6.752 16.896-16.896s-10.144-16.896-16.896-16.896z"  horiz-adv-x="1034" />
      
      <glyph glyph-name="mima" unicode="&#58943;" d="M512 822.848a240.32 240.32 0 0 1-240.32-240.32v-52.256h480.64V582.528A240.32 240.32 0 0 1 512 822.848z m5.344-62.752a177.696 177.696 0 0 0 172-167.104H334.688a177.664 177.664 0 0 0 177.344 167.168l5.344-0.096z m287.232-167.104H219.424a114.944 114.944 0 0 1-114.944-114.944v-417.952a114.944 114.944 0 0 1 114.944-114.944h585.152a114.944 114.944 0 0 1 114.944 114.944V478.048a114.944 114.944 0 0 1-114.944 114.944z m-585.152-62.72h585.152c28.864 0 52.256-23.392 52.256-52.256v-417.952c0-28.864-23.392-52.256-52.256-52.256H219.424a52.256 52.256 0 0 0-52.256 52.256V478.016c0 28.864 23.392 52.256 52.256 52.256z"  horiz-adv-x="1024" />
      
      <glyph glyph-name="rukudingdan" unicode="&#58945;" d="M257.024 731.136h270.336v-90.112c1.024-31.744 16.384-65.536 46.08-78.848 10.24-4.096 21.504-5.12 31.744-5.12h96.256V384c-31.744 3.072-63.488 0-93.184-11.264-39.936-14.336-73.728-41.984-97.28-77.824H307.2c-13.312 0-26.624-7.168-34.816-18.432-9.216-11.264-10.24-27.648-5.12-40.96 6.144-16.384 22.528-27.648 39.936-27.648h173.056a202.4 202.4 0 0 1 33.792-132.096h-245.76c-11.264 0-21.504 3.072-31.744 8.192-19.456 10.24-36.864 25.6-48.128 44.032-7.168 11.264-12.288 24.576-11.264 38.912V634.88c-1.024 26.624 12.288 51.2 30.72 69.632 15.36 14.336 31.744 24.576 49.152 26.624m46.08-261.12a44.64 44.64 0 0 1-33.792-26.624c-5.12-14.336-3.072-30.72 6.144-43.008 8.192-10.24 21.504-17.408 34.816-17.408h262.144c20.48 0 39.936 16.384 43.008 36.864 5.12 24.576-16.384 50.176-41.984 50.176H303.104z m269.312 261.12h7.168c18.432-3.072 31.744-17.408 46.08-28.672 24.576-21.504 49.152-40.96 68.608-67.584 8.192-9.216 10.24-22.528 9.216-33.792h-102.4a17.92 17.92 0 0 0-14.336 7.168c-8.192 10.24-13.312 23.552-13.312 35.84-1.024 29.696-1.024 58.368-1.024 87.04z m98.304-496.64s129.024-10.24 129.024-105.472c0 96.256-129.024 105.472-129.024 105.472z m90.112-68.608c30.72-13.312 37.888-31.744 38.912-34.816-1.024 3.072-8.192 21.504-38.912 34.816zM686.08 343.04c-87.04 0-158.72-68.608-158.72-153.6s70.656-153.6 158.72-153.6c87.04 0 158.72 68.608 158.72 153.6s-70.656 153.6-158.72 153.6z m113.664-211.968c-1.024 4.096-9.216 22.528-38.912 34.816h-2.048c-1.024 0-2.048 1.024-3.072 1.024-2.048 1.024-4.096 1.024-6.144 2.048-3.072 1.024-7.168 2.048-10.24 3.072-5.12 1.024-11.264 3.072-18.432 4.096-1.024 0-3.072 0-4.096 1.024h-2.048a419.52 419.52 0 0 1-44.032 2.048v-49.152L559.104 204.8l111.616 74.752v-45.056s129.024-9.216 129.024-103.424c0-1.024 0-1.024 0 0z m0 0"  horiz-adv-x="1024" />
      
      <glyph glyph-name="jinggao_tixing" unicode="&#58946;" d="M512 842.656C258.688 842.656 53.344 637.312 53.344 384S258.688-74.656 512-74.656 970.656 130.688 970.656 384 765.312 842.656 512 842.656z m0-64c217.952 0 394.656-176.704 394.656-394.656S729.952-10.656 512-10.656 117.344 166.048 117.344 384 294.048 778.656 512 778.656z m25.696-485.536l14.944 304.032h-80.64l14.944-304.032h50.784zM512 170.656c12.736 0 23.904 4.192 33.44 12.544 8.736 8.736 13.152 19.712 13.152 32.864a43.84 43.84 0 0 1-13.152 32.256c-8.736 8.352-19.904 12.544-33.44 12.544-13.152 0-23.904-4.192-32.256-12.544-9.184-7.968-13.728-18.72-13.728-32.256s4.576-24.288 13.728-32.256c8.736-8.736 19.52-13.152 32.256-13.152z"  horiz-adv-x="1056" />
      
      <glyph glyph-name="jiaoseguanli" unicode="&#58947;" d="M399.776 191.136c0 50.336 11.168 97.856 33.536 139.776-206.88-13.984-369.024-184.512-369.024-391.392h466.848c-81.056 55.904-131.392 148.16-131.392 251.616z m55.904 195.68h13.984a309.632 309.632 0 0 0 173.312 103.424c22.368 33.536 33.536 75.488 33.536 117.408 0 123.008-100.64 223.648-223.648 223.648S229.216 730.656 229.216 607.648c2.784-120.224 103.424-220.864 226.432-220.864z m466.88-198.496l-5.6 2.784-2.784 2.784s5.6 2.784 8.384 5.6c22.368 11.168 33.536 33.536 30.752 55.904-2.784 25.152-8.384 44.736-19.584 61.504-16.768 27.968-41.92 36.352-75.488 25.152-2.784 0-5.6-2.784-8.384-2.784v5.6c8.384 22.368 2.784 47.52-13.984 67.104-5.6 5.6-16.768 16.768-33.536 22.368-13.984 5.6-27.968 8.384-39.136 8.384-36.352 0-50.336-30.752-55.904-41.92l-2.784 2.784s0 2.784-2.784 2.784c0 2.784-2.784 5.6-2.784 8.384-11.168 16.768-27.968 27.968-47.52 27.968h-8.384c-13.984-2.784-27.968-2.784-41.92-11.168-39.136-19.584-53.12-44.736-44.736-83.872v-5.6c-2.784 0-5.6 0-8.384 2.784-25.152 8.384-47.52 0-64.288-19.584-8.384-11.168-16.768-25.152-19.552-44.736-11.168-39.136 0-67.104 36.352-83.872 0 0-2.784-2.784-5.6-2.784-22.368-8.384-33.536-27.968-36.352-53.12 0-30.752 8.384-58.72 30.752-78.272 13.984-13.984 30.752-19.552 53.12-16.768 2.784 0 5.6 0 8.384 2.784h2.784v-2.784c-8.384-25.152-2.784-47.52 16.768-67.104 13.984-13.984 30.752-22.368 53.12-27.968 11.168-2.784 19.584-2.784 25.152-2.784 33.536 0 50.336 27.968 55.904 39.136 0 2.784 2.784 2.784 2.784 2.784l5.6-5.6c0-2.784 2.784-5.6 5.6-8.384 13.984-22.368 33.536-30.752 58.72-27.968 19.552 2.784 36.352 8.384 53.12 19.584 27.968 19.552 36.352 47.52 25.152 78.272h8.384c33.536-8.384 58.72 2.784 78.272 33.536 8.384 13.984 13.984 30.752 16.768 50.336 0 22.368-13.984 44.736-36.352 58.72z m-64.32-2.784c2.784-16.768 11.168-33.536 27.968-41.92 2.784 0 2.784-2.784 5.6-2.784h2.784c5.6-2.784 5.6-2.784 5.6-8.384 0-11.168-2.784-16.768-8.384-25.152s-8.384-8.384-11.168-8.384h-8.384c-2.784 0-5.6 0-8.384 2.784h-2.784c-25.152 2.784-44.736-5.6-55.904-22.368s-11.168-36.352-5.6-55.904c2.784-5.6 2.784-5.6-2.784-11.168-8.384-5.6-19.552-11.168-33.536-11.168l-2.784 2.784s0 2.784-2.784 5.6c0 2.784-2.784 2.784-2.784 2.784-13.984 25.152-36.352 30.752-50.336 30.752-11.168 0-33.536-2.784-50.336-30.752-5.6-8.384-8.384-11.168-8.384-11.168-2.784 0-5.6 0-11.168 2.784a66.624 66.624 0 0 0-30.752 16.768v2.784c0 2.784 0 2.784 2.784 8.384 5.6 16.768 5.6 33.536-5.6 47.52-8.384 13.984-25.152 22.368-41.92 22.368h-8.384c-5.6 0-11.168 0-16.768-2.784h-8.384c-11.168 11.168-13.984 25.152-13.984 41.92 13.984 5.6 22.368 13.984 30.752 25.152 8.384 13.984 11.168 27.968 8.384 44.736s-13.984 30.752-30.752 39.136c-11.168 5.6-11.168 5.6-8.384 19.584 2.784 11.168 5.6 16.768 11.168 22.368l2.784 2.784h2.784c16.768-5.6 27.968-5.6 39.136-2.784 30.752 8.384 47.52 36.352 41.92 72.672-2.784 8.384 0 11.168 0 11.168s2.784 2.784 13.984 8.384c8.384 2.784 13.984 5.6 25.152 5.6l2.784-2.784c2.784-2.784 2.784-5.6 5.6-8.384 11.168-16.768 30.752-27.968 50.336-27.968s39.136 11.168 47.52 30.752c5.6 11.168 8.384 11.168 8.384 11.168 5.6 0 16.768-5.6 22.368-5.6 5.6-2.784 8.384-5.6 13.984-8.384 2.784-2.784 2.784-2.784 2.784-5.6a63.904 63.904 0 0 1-2.784-39.136c5.6-27.968 33.536-47.52 64.288-41.92 5.6 0 11.168 2.784 16.768 5.6 2.784 0 5.6 0 5.6 2.784 0 0 2.784 0 5.6-5.6 5.6-8.384 8.384-19.584 11.168-33.536l-5.6-13.984a91.136 91.136 0 0 1-22.368-16.768 46.4 46.4 0 0 1-16.768-44.736z m-150.944 117.408c-61.504 0-111.808-50.336-111.808-111.808s50.336-111.808 111.808-111.808c61.504 0 111.808 50.336 111.808 111.808s-50.336 111.808-111.808 111.808z m0-167.744c-30.752 0-55.904 25.152-55.904 55.904s25.152 55.904 55.904 55.904c30.752 0 55.904-25.152 55.904-55.904s-25.152-55.904-55.904-55.904z"  horiz-adv-x="1024" />
      
      <glyph glyph-name="saoyisao" unicode="&#58948;" d="M877.728 309.824a31.36 31.36 0 0 0 31.2-28.192v-0.128l0.16-3.008v-176.576a114.976 114.976 0 0 0-110.08-114.848h-0.224l-4.608-0.096h-185.888a31.36 31.36 0 0 0-3.136 62.56h0.128l3.008 0.16h185.888c27.648 0 50.272 21.472 52.128 48.672v0.16l0.096 3.424v176.576a31.36 31.36 0 0 0 31.36 31.36z m-752.352 0.32a31.36 31.36 0 0 0 31.2-28.192v-0.128l0.16-3.04v-176.928c0-27.648 21.472-50.272 48.672-52.128h0.16l3.424-0.096h185.984a31.36 31.36 0 0 0 3.136-62.56h-0.128l-3.008-0.16H208.992a114.976 114.976 0 0 0-114.848 110.08v0.224l-0.096 4.608v176.928a31.36 31.36 0 0 0 31.36 31.36zM794.112 801.952a114.976 114.976 0 0 0 114.848-110.08v-0.224l0.096-4.608v-197.792a31.36 31.36 0 0 0-62.56-3.168v0.128l-0.16 3.04V687.04c0 27.648-21.472 50.272-48.672 52.128h-0.16l-3.424 0.096h-185.696a31.36 31.36 0 0 0-3.136 62.56h0.128l3.008 0.16h185.696z m-400.384 0a31.36 31.36 0 0 0 3.136-62.56h-0.128l-3.04-0.16H208.992c-27.648 0-50.272-21.472-52.128-48.672v-0.16l-0.096-3.424v-197.76a31.36 31.36 0 0 0-62.56-3.136v0.128l-0.16 3.008v197.76a114.976 114.976 0 0 0 110.08 114.848h0.224l4.608 0.096h184.736z m275.008-386.592a31.36 31.36 0 0 0 3.136-62.56h-0.128l-3.008-0.16H334.368a31.36 31.36 0 0 0-3.136 62.56h0.128l3.008 0.16h334.368z"  horiz-adv-x="1024" />
      
      <glyph glyph-name="shang" unicode="&#58949;" d="M484.832 792.768a31.264 31.264 0 0 0 41.984 2.112l-0.064 0.032 2.368-2.144 292.576-292.576a31.328 31.328 0 0 0-42.016-46.464l0.064-0.032-2.368 2.144-292.576 292.576a31.264 31.264 0 0 0 0 44.352z m1.536 0a31.36 31.36 0 0 0 46.432-42.016l0.032 0.064-2.144-2.368-292.576-292.576a31.36 31.36 0 0 0-46.464 42.048l-0.032-0.064 2.144 2.368 292.576 292.576z m20.192 9.184h0.416a31.36 31.36 0 0 0 31.136-27.776v-0.128l0.192-3.008 10.016-752.32v-0.448a31.36 31.36 0 0 0-62.496-3.552v0.128l-0.192 3.008-10.016 752.32v0.416a31.36 31.36 0 0 0 30.912 31.36h0.032z"  horiz-adv-x="1024" />
      
      <glyph glyph-name="quanxian" unicode="&#58950;" d="M522.656 640a138.656 138.656 0 0 0 0-277.312 138.656 138.656 0 0 0 0 277.312z m0-64a74.656 74.656 0 1 1 0-149.312 74.656 74.656 0 1 1 0 149.312z m-21.376 286.112L188.096 749.824a74.784 74.784 0 0 1-49.44-70.272V188.928c0-12.64 3.136-24.512 8.672-34.944l-0.192 0.416c51.008-97.696 168.96-179.616 352.8-248.352a32.096 32.096 0 0 1 22.336-0.032l-0.224-0.064c189.856 68.96 308.896 151.264 356 250.048 4.576 9.408 7.264 20.448 7.264 32.096V679.584a74.72 74.72 0 0 1-48.928 70.112l-0.512 0.16-312.992 112.288a31.36 31.36 0 0 1-21.792-0.064l0.224 0.064zM209.696 689.568l302.336 108.448 302.208-108.448c4.16-1.536 7.072-5.44 7.072-10.016v-491.456a10.304 10.304 0 0 0-1.088-4.64l0.032 0.064-2.464-4.992c-38.496-74.912-136.8-143.904-296-204.416l-10.528-3.936-10.816 4.192c-157.664 61.76-256.256 132.384-296.608 209.664a10.496 10.496 0 0 0-1.216 4.928V679.552c0 4.608 2.912 8.512 6.976 10.016l0.064 0.032z m312.96-294.912a32 32 0 0 0 31.84-28.8v-0.128l0.16-3.072V192a32 32 0 0 0-63.84-3.232v0.128l-0.16 3.072v170.656a32 32 0 0 0 32 32z m74.688-96a32 32 0 0 0 3.232-63.84h-0.128l-3.072-0.16h-64a32 32 0 0 0-3.2 63.84h0.128l3.072 0.16h64z"  horiz-adv-x="1024" />
      
      <glyph glyph-name="qiye_gongsi_danweijibenxinxi" unicode="&#58951;" d="M512 842.656H213.344A74.656 74.656 0 0 1 138.688 768v-768a74.656 74.656 0 0 1 74.656-74.656H512A74.656 74.656 0 0 1 586.656 0V768A74.656 74.656 0 0 1 512 842.656z m-298.656-64H512c5.888 0 10.656-4.768 10.656-10.656v-768a10.656 10.656 0 0 0-10.656-10.656H213.344A10.656 10.656 0 0 0 202.688 0V768c0 5.888 4.768 10.656 10.656 10.656z m618.656-192h-234.656A74.656 74.656 0 0 1 522.688 512v-512a74.656 74.656 0 0 1 74.656-74.656H832A74.656 74.656 0 0 1 906.656 0V512A74.656 74.656 0 0 1 832 586.656z m-234.656-64H832c5.888 0 10.656-4.768 10.656-10.656v-512a10.656 10.656 0 0 0-10.656-10.656h-234.656a10.656 10.656 0 0 0-10.656 10.656V512c0 5.888 4.768 10.656 10.656 10.656zM416 640a32 32 0 0 0 3.2-63.84h-0.128L416 576h-85.344a32 32 0 0 0-3.2 63.84h0.128L330.656 640H416z m0-213.344a32 32 0 0 0 3.2-63.84h-0.128l-3.072-0.16h-85.344a32 32 0 0 0-3.2 63.84h0.128l3.072 0.16H416z m0-213.312a32 32 0 0 0 3.2-63.84h-0.128l-3.072-0.16h-85.344a32 32 0 0 0-3.2 63.84h0.128l3.072 0.16H416z m330.656 213.312a32 32 0 0 0 3.232-63.84h-0.128l-3.072-0.16h-64a32 32 0 0 0-3.232 63.84h0.128l3.072 0.16h64z m0-213.312a32 32 0 0 0 3.232-63.84h-0.128l-3.072-0.16h-64a32 32 0 0 0-3.232 63.84h0.128l3.072 0.16h64z m234.688-234.688a32 32 0 0 0 3.232-63.84h-0.128l-3.072-0.16H42.72a32 32 0 0 0-3.232 63.84h0.128l3.072 0.16h938.656z"  horiz-adv-x="1024" />
      
      <glyph glyph-name="shijian_zhongbiao" unicode="&#58952;" d="M512 842.656C258.688 842.656 53.344 637.312 53.344 384S258.688-74.656 512-74.656 970.656 130.688 970.656 384 765.312 842.656 512 842.656z m0-64c217.952 0 394.656-176.704 394.656-394.656S729.952-10.656 512-10.656 117.344 166.048 117.344 384 294.048 778.656 512 778.656z m149.344-437.312a32 32 0 0 0 3.232-63.84h-0.128l-3.072-0.16h-192a32 32 0 0 0-3.2 63.84h0.128l3.072 0.16h192zM458.656 608a32 32 0 0 0 31.84-28.8v-0.128l0.16-3.072v-256a32 32 0 0 0-63.84-3.232v0.128l-0.16 3.072v256a32 32 0 0 0 32 32z"  horiz-adv-x="1024" />
      
      <glyph glyph-name="shezhi" unicode="&#58953;" d="M954.08 421.344L765.376 748.16a74.816 74.816 0 0 1-64.64 37.344H323.296c-27.488 0-51.52-14.848-64.48-36.992l-0.192-0.352-188.704-326.816c-6.304-10.72-10.016-23.584-10.016-37.344s3.712-26.624 10.208-37.696l-0.192 0.352L258.624 19.84a74.816 74.816 0 0 1 64.64-37.344h377.408c27.488 0 51.52 14.848 64.48 36.992l0.192 0.352 188.704 326.816c6.304 10.72 10.016 23.584 10.016 37.344s-3.712 26.624-10.208 37.696l0.192-0.352z m-55.424-42.688L709.952 51.84a10.72 10.72 0 0 0-9.248-5.344H323.328a10.656 10.656 0 0 0-9.216 5.28l-0.032 0.064-188.704 326.816a10.56 10.56 0 0 0 0.032 10.72l-0.032-0.064L314.08 716.128a10.72 10.72 0 0 0 9.248 5.344h377.376c3.936 0 7.36-2.112 9.216-5.28l0.032-0.064 188.704-326.816a10.56 10.56 0 0 0-0.032-10.72l0.032 0.064zM672 384a160 160 0 0 1-320 0 160 160 0 0 1 320 0z m-64 0a96 96 0 1 0-192 0 96 96 0 1 0 192 0z"  horiz-adv-x="1024" />
      
      <glyph glyph-name="shangchuan" unicode="&#58954;" d="M489.856 792.768a31.264 31.264 0 0 0 41.984 2.112l-0.064 0.032 2.368-2.144 208.992-208.992a31.328 31.328 0 0 0-42.016-46.464l0.064-0.032-2.368 2.144-208.992 208.992a31.264 31.264 0 0 0 0 44.352z m0 0a31.36 31.36 0 0 0 46.432-42.016l0.032 0.064-2.144-2.368-208.992-208.992A31.328 31.328 0 0 0 278.72 581.472l-0.032-0.064 2.144 2.368 208.992 208.992z m440.096-450.56a31.36 31.36 0 0 0 31.2-28.192v-0.128l0.16-3.008V60.192a115.04 115.04 0 0 0-110.08-114.912h-0.224l-4.608-0.096H177.664a115.008 115.008 0 0 0-114.848 110.208v0.224l-0.096 4.608v248.672a31.36 31.36 0 0 0 62.56 3.136v-0.128l0.16-3.008v-248.736c0-27.648 21.472-50.304 48.64-52.192h0.16l3.424-0.096H846.4a52.288 52.288 0 0 1 52.128 48.736v0.16l0.096 3.456v250.656a31.36 31.36 0 0 0 31.36 31.36zM512 754.688a31.36 31.36 0 0 0 31.2-28.192v-0.128l0.16-3.008v-585.152a31.36 31.36 0 0 0-62.56-3.136v0.128l-0.16 3.008V723.36a31.36 31.36 0 0 0 31.36 31.36z"  horiz-adv-x="1024" />
      
      <glyph glyph-name="shaixuan" unicode="&#58955;" d="M845.6 781.056a52.256 52.256 0 0 0 39.456-86.496l0.064 0.064-2.848-3.04-238.208-234.464v-85.792a31.36 31.36 0 0 0-28.192-31.2h-0.128l-3.008-0.128a31.36 31.36 0 0 0-31.2 28.192v0.128l-0.16 3.008v98.88c0 7.36 2.56 14.432 7.232 20.032l2.112 2.304 229.344 225.792H162.048l229.344-225.792a31.296 31.296 0 0 0 9.184-19.104v-0.128l0.16-3.104v-385.024c0-3.68 1.92-6.944 4.8-8.8l0.032-0.032 1.568-0.832 159.744-66.816a31.392 31.392 0 0 0-21.6-58.816l0.224-0.064-2.848 1.056-159.744 66.816a73.28 73.28 0 0 0-44.768 63.072v0.192l-0.128 4.192-0.032 371.936L99.84 691.552a52.032 52.032 0 0 0-15.584 37.216c0 12.96 4.736 24.832 12.544 33.952l-0.064-0.064 2.528 2.752a52.16 52.16 0 0 0 32.864 15.424h0.192l4.192 0.16h709.024z m-145.504-585.152a31.36 31.36 0 0 0 3.136-62.56h-0.128l-3.008-0.16h-104.48a31.36 31.36 0 0 0-3.136 62.56h0.128l3.008 0.16h104.48z m-41.824-114.912a31.36 31.36 0 0 0 3.136-62.56h-0.128l-3.008-0.16h-62.688a31.36 31.36 0 0 0-3.136 62.56h0.128l3.008 0.16h62.688z m83.616 229.856a31.36 31.36 0 0 0 3.136-62.56h-0.128l-3.008-0.16h-146.272a31.36 31.36 0 0 0-3.136 62.56h0.128l3.008 0.16h146.272z"  horiz-adv-x="1024" />
      
      <glyph glyph-name="shuaxin" unicode="&#58956;" d="M701.632 709.376a409.024 409.024 0 0 0 151.52-153.056l1.056-2.048a31.36 31.36 0 0 0-54.752-30.528l-0.096 0.16a345.728 345.728 0 0 1-127.456 130.304l-1.632 0.864C505.344 750.272 294.464 693.76 199.232 528.832s-38.688-375.808 126.208-471.04c164.928-95.2 375.808-38.688 471.04 126.24a31.392 31.392 0 0 0 54.208-31.52l0.096 0.16C738.24-42.24 489.024-109.024 294.112 3.52S32.384 365.28 144.928 560.16c112.544 194.944 361.76 261.696 556.672 149.216z m-10.784-180.928a31.424 31.424 0 0 0 36 22.176l-0.192 0.032 2.944-0.704 146.272-41.792a31.392 31.392 0 0 0-8.736-61.472c-1.952 0-3.872 0.192-5.728 0.512l0.192-0.032-2.944 0.704-146.272 41.792a31.424 31.424 0 0 0-21.472 38.976l-0.064-0.224z m188.064 104.48a31.392 31.392 0 0 0 61.472-8.736c0-1.952-0.192-3.872-0.512-5.728l0.032 0.192-0.704-2.944-41.792-146.272a31.392 31.392 0 0 0-61.472 8.736c0 1.952 0.192 3.872 0.512 5.728l-0.032-0.192 0.704 2.944 41.792 146.272z"  horiz-adv-x="1024" />
      
      <glyph glyph-name="nan" unicode="&#58957;" d="M522.048 845.792c-199.616 0-361.408-161.824-361.408-361.408s161.824-361.408 361.408-361.408S883.456 284.8 883.456 484.384 721.632 845.792 522.048 845.792z m0-55.616c168.896 0 305.792-136.896 305.792-305.792s-136.864-305.792-305.792-305.792-305.792 136.864-305.792 305.792 136.864 305.792 305.792 305.792z m0-627.04a30.08 30.08 0 0 0 29.952-27.104v-0.128l0.128-2.88v-220.864a30.112 30.112 0 0 0-60.064-3.04v0.128l-0.128 2.88v220.864a30.08 30.08 0 0 0 30.112 30.112z m170.656-110.432a30.112 30.112 0 0 0 3.04-60.064h-0.128l-2.88-0.128H351.392a30.112 30.112 0 0 0-3.04 60.064h0.128l2.88 0.128h341.344z"  horiz-adv-x="1024" />
      
      <glyph glyph-name="suoxiao" unicode="&#58958;" d="M411.648 322.784a31.36 31.36 0 0 0 46.464-42.048l0.032 0.064-2.144-2.368-292.576-292.576a31.36 31.36 0 0 0-46.464 42.048l-0.032-0.064 2.144 2.368 292.576 292.576z m192.768 108.096a31.36 31.36 0 0 0-46.464 42.048l-0.032-0.064 2.144 2.368 292.576 292.576a31.36 31.36 0 0 0 46.464-42.048l0.032 0.064-2.144-2.368-292.576-292.576z m-153.344-81.664h0.032a31.36 31.36 0 0 0 31.2-28.192v-0.128l0.128-3.008v-292.576a31.36 31.36 0 0 0-62.56-3.168v0.128l-0.16 3.04v292.576a31.36 31.36 0 0 0 31.36 31.36z m113.888 55.232a31.36 31.36 0 0 0-31.2 28.192v0.128l-0.16 3.008V728.352a31.36 31.36 0 0 0 62.56 3.136v-0.128l0.16-3.008v-292.576a31.36 31.36 0 0 0-31.36-31.36z m-117.92-55.232a31.36 31.36 0 0 0 3.136-62.56h-0.128l-3.008-0.16H154.24a31.36 31.36 0 0 0-2.912 62.56h0.128l3.04 0.128h292.576z m121.984 55.232h-0.224a31.36 31.36 0 0 0-2.944 62.56h0.128l3.008 0.128h292.576a31.36 31.36 0 0 0 3.168-62.56h-0.128l-3.04-0.16h-292.576z"  horiz-adv-x="1024" />
      
      <glyph glyph-name="tongjier" unicode="&#58959;" d="M522.656 650.656a32 32 0 0 0 31.84-28.8v-0.128l0.16-3.072V192a32 32 0 0 0-63.84-3.232v0.128l-0.16 3.072V618.624a32 32 0 0 0 32 32zM117.344 800a32 32 0 0 0 31.84-28.8v-0.128L149.344 768v-768a32 32 0 0 0-63.84-3.232v0.128l-0.16 3.072v768a32 32 0 0 0 32 32z m640-448a32 32 0 0 0 31.84-28.8v-0.128l0.16-3.072v-128a32 32 0 0 0-63.84-3.232v0.128l-0.16 3.072v128a32 32 0 0 0 32 32z m-448 128a32 32 0 0 0 31.84-28.8v-0.128l0.16-3.072v-256a32 32 0 0 0-63.84-3.232v0.128l-0.16 3.072v256a32 32 0 0 0 32 32zM896 32a32 32 0 0 0 3.232-63.84h-0.128l-3.072-0.16h-768a32 32 0 0 0-3.232 63.84h0.128L128 32h768z"  horiz-adv-x="1024" />
      
      <glyph glyph-name="StartOP" unicode="&#58960;" d="M512 896C229.216 896 0 666.784 0 384s229.216-512 512-512 512 229.216 512 512S794.784 896 512 896z m0-976.032C255.744-80.032 47.968 127.712 47.968 384S255.712 848.032 512 848.032c256.256 0 464.032-207.744 464.032-464.032S768.288-80.032 512-80.032z m152.128 500.672L441.92 567.36c-34.976 20.192-63.552 3.648-63.552-36.64v-293.44c0-40.288 28.512-56.832 63.552-36.64l222.048 146.72c34.976 20.128 34.976 53.184 0 73.28z"  horiz-adv-x="1024" />
      
      <glyph glyph-name="shouye" unicode="&#58961;" d="M50.976 386.08l-1.92-2.08c-16.864-19.936-2.912-51.456 24.064-51.456l103.264 0.032v-335.2c0-17.312 14.048-31.36 31.36-31.36h0.032l244.544 0.16a31.36 31.36 0 0 1 28.32 31.168v198.528h62.688v-198.496c0-17.312 14.048-31.36 31.36-31.36l223.616 0.128a31.392 31.392 0 0 1 28.352 31.2l-0.032 335.2 103.328-0.032c27.936 0 41.92 33.824 22.144 53.536L523.68 813.664a31.264 31.264 0 0 1-44.288 0L50.976 386.048z m450.56 361.152l352.608-351.968h-58.848l-3.008-0.16a31.392 31.392 0 0 1-28.352-31.2v-335.168l-157.92 0.032v198.496a31.36 31.36 0 0 1-31.36 31.36H449.28l-3.008-0.16a31.392 31.392 0 0 1-28.352-31.2v-198.496l-178.848-0.032V363.936l-0.16 3.008a31.36 31.36 0 0 1-31.2 28.32H148.864l352.64 351.968z"  horiz-adv-x="1024" />
      
      <glyph glyph-name="naozhong" unicode="&#58962;" d="M512 781.056c-225.056 0-407.52-182.432-407.52-407.52S286.912-33.984 512-33.984s407.52 182.432 407.52 407.52S737.088 781.056 512 781.056z m0-62.688c190.432 0 344.832-154.368 344.832-344.8S702.464 28.768 512 28.768 167.2 183.136 167.2 373.6 321.568 718.4 512 718.4z m-20.896-125.376a31.36 31.36 0 0 1-31.2-28.192v-0.128l-0.16-3.008v-227.296a31.36 31.36 0 0 1 8.768-21.76l2.208-2.08 125.376-107.072a31.36 31.36 0 0 1 43.04 45.504l-2.336 2.208-114.4 97.728v212.8a31.36 31.36 0 0 1-28.192 31.2h-0.128l-3.008 0.16z m312.224 199.776a31.264 31.264 0 0 0 41.984 2.112l-0.064 0.032 2.368-2.144 146.272-146.272a31.328 31.328 0 0 0-42.016-46.464l0.064-0.032-2.368 2.144-146.272 146.272a31.264 31.264 0 0 0 0 44.352z m-582.656 0a31.264 31.264 0 0 1-41.984 2.112l0.064 0.032-2.368-2.144L30.112 646.496a31.328 31.328 0 0 1 42.016-46.464l-0.064-0.032 2.368 2.144 146.272 146.272a31.264 31.264 0 0 1 0 44.352z"  horiz-adv-x="1024" />
      
      <glyph glyph-name="pifu_shensemoshi" unicode="&#58963;" d="M240.352 781.056a31.36 31.36 0 0 1-16.448-4.64l0.128 0.064-2.848-1.952-161.408-124.544a73.088 73.088 0 0 1-18.24-95.2l-0.192 0.352 2.144-3.456 51.264-77.44a73.12 73.12 0 0 1 97.504-23.008l-0.352-0.192 3.52 2.144 54.592 35.264a31.36 31.36 0 0 1-31.552 54.112l0.16 0.096-2.624-1.536-54.592-35.264a10.464 10.464 0 0 0-13.216 1.568l-1.152 1.472-51.296 77.44a10.56 10.56 0 0 0 0.864 12.672l1.472 1.376 152.96 117.984h27.008a31.36 31.36 0 0 1 31.2 28.192v0.128l0.128 3.008a31.36 31.36 0 0 1-28.192 31.2h-0.128l-3.008 0.16H240.352z m570.56 0a31.36 31.36 0 0 0 16.448-4.64l-0.128 0.064 2.848-1.952 161.408-124.544a73.184 73.184 0 0 0 18.304-95.168l0.192 0.352-2.144-3.456-51.296-77.44a73.12 73.12 0 0 0-97.504-23.008l0.352-0.192-3.52 2.144-54.592 35.264a31.36 31.36 0 0 0 31.584 54.112l-0.16 0.096 2.624-1.536 54.592-35.264a10.56 10.56 0 0 1 13.216 1.536l1.184 1.472 51.264 77.44a10.56 10.56 0 0 1-0.864 12.672l-1.472 1.376-152.928 117.984h-27.008a31.36 31.36 0 0 0-31.2 28.192v0.128l-0.16 3.008a31.36 31.36 0 0 0 28.192 31.2h0.128l3.008 0.16h37.664z m4.096-234.752a31.36 31.36 0 0 0 31.2-28.192v-0.128l0.16-3.008v-433.952a114.976 114.976 0 0 0-110.08-114.848h-0.224l-4.608-0.096H313.504a114.976 114.976 0 0 0-114.848 110.08v0.224l-0.096 4.608V514.944a31.36 31.36 0 0 0 62.56 3.136v-0.128l0.16-3.008v-433.952c0-27.648 21.472-50.272 48.672-52.128h0.16l3.424-0.096h417.952c27.648 0 50.272 21.472 52.128 48.672v0.16l0.096 3.424V514.976a31.36 31.36 0 0 0 31.36 31.36zM298.912 781.056a31.36 31.36 0 0 0 30.912-26.048l0.032-0.192c13.376-81.088 90.432-140.928 188.64-140.928s175.264 59.84 188.64 140.928a31.424 31.424 0 0 0 27.968 26.112h0.128l2.848 0.128h56.064a31.36 31.36 0 0 0 3.136-62.56h-0.128l-3.008-0.16h-31.2l-0.736-2.624c-29.6-95.392-123.392-161.952-236.992-164.48l-6.688-0.096c-116.608 0-213.504 67.328-243.68 164.576l-0.8 2.624h-23.264a31.36 31.36 0 0 0-31.2 28.192v0.128l-0.16 3.008a31.36 31.36 0 0 0 28.192 31.2h0.128l3.008 0.16h48.16z"  horiz-adv-x="1024" />
      
      <glyph glyph-name="remen" unicode="&#58964;" d="M380.96 692.64c-33.152-48.864-51.264-108-54.176-166.464l-0.224-4.896c-9.472 29.536-12.544 72.352-12.544 134.784a31.328 31.328 0 0 1-48.96 25.92c-56.64-38.496-96.928-95.552-123.584-165.632-16.416-43.232-26.816-89.12-32.448-135.392a628.96 628.96 0 0 1-4-47.584l-0.416-10.656c-0.096-3.232-0.128-6.176-0.16-9.152l-0.032-4.448c0-212.576 173.12-384.864 386.624-384.864s386.624 172.288 386.624 384.864a387.2 387.2 0 0 1-4.64 59.808 129.184 129.184 0 0 1-7.328 25.76l-3.2 8.256c-2.848 7.008-9.152 22.496-11.264 27.968-23.84 61.76-26.88 113.088 1.76 180.128a31.328 31.328 0 0 1-28.416 43.648h-0.032l-6.528 0.032c-85.664 0.128-129.216-18.112-169.952-75.904l-4.48-6.528-0.544 5.76c-6.016 73.824 23.712 136.096 94.944 182.816 24.352 15.968 15.68 53.568-13.184 57.312-155.264 19.936-271.264-24.832-339.04-118.624l-4.864-6.88z m260.192 67.36l-1.376-1.536c-66.592-76.288-76.096-174.976-36.992-281.664 9.504-25.888 45.344-27.808 57.536-3.104l2.944 5.952c38.88 77.92 60.128 103.744 113.664 110.432l2.56 0.32-0.512-1.792c-16.16-60.608-10.336-114.304 10.88-172.352l5.696-14.784c3.68-9.216 9.024-22.272 9.856-24.416 3.392-8.704 5.152-14.24 5.728-17.824 2.56-16.448 3.872-33.184 3.872-50.08-0.032-177.888-145.024-322.176-323.936-322.176-176.704 0-320.32 140.736-323.84 315.616l-0.064 6.56c0 6.592 0.096 12.608 0.512 21.344 0.768 16.32 2.08 31.168 3.904 45.824l-0.288-2.848c5.056 41.6 14.336 82.624 28.8 120.672l3.296 8.352c12.256 30.24 27.424 57.056 45.696 79.904l3.584 4.352 0.32-5.024c1.568-25.216 4.544-44.32 9.952-64.896 14.176-53.76 43.936-91.648 93.504-109.472a31.36 31.36 0 0 1 40.864 37.664c-18.816 69.888-5.28 156.192 39.296 217.856 42.048 58.176 108.256 92.864 198.944 96.96l5.568 0.224z"  horiz-adv-x="1024" />
      
      <glyph glyph-name="tupian" unicode="&#58966;" d="M835.904 739.264H167.168A114.944 114.944 0 0 1 52.224 624.32v-501.536a114.944 114.944 0 0 1 114.944-114.944h668.736a114.944 114.944 0 0 1 114.944 114.944V624.32a114.944 114.944 0 0 1-114.944 114.944zM167.168 676.576h668.736c28.864 0 52.256-23.392 52.256-52.256v-501.536c0-28.864-23.392-52.256-52.256-52.256H167.168a52.256 52.256 0 0 0-52.256 52.256V624.32c0 28.864 23.392 52.256 52.256 52.256z m277.376-317.408a31.36 31.36 0 0 0 33.12-53.152l-0.096-0.064-2.592-1.6-188.096-104.48a31.36 31.36 0 0 0-33.12 53.152l0.096 0.064 2.592 1.6 188.096 104.48z m292.576 0a31.36 31.36 0 0 0 33.12-53.152l-0.096-0.064-2.592-1.6-188.096-104.48a31.36 31.36 0 0 0-33.12 53.152l0.096 0.064 2.592 1.6 188.096 104.48z m-299.52-5.248a31.264 31.264 0 0 0 41.984 2.112l-0.064 0.032 2.368-2.144 104.48-104.48a31.328 31.328 0 0 0-42.016-46.464l0.064-0.032-2.368 2.144-104.48 104.48a31.264 31.264 0 0 0 0 44.352zM313.472 592.992a94.08 94.08 0 0 1 0-188.096 94.08 94.08 0 0 1 0 188.096z m0-62.72a31.36 31.36 0 0 0 0-62.72 31.36 31.36 0 0 0 0 62.72z"  horiz-adv-x="1024" />
      
      <glyph glyph-name="wendang_wenjian" unicode="&#58967;" d="M768 842.656H256a117.344 117.344 0 0 1-117.344-117.344v-682.656A117.344 117.344 0 0 1 256-74.688h512a117.344 117.344 0 0 1 117.344 117.344V725.312A117.344 117.344 0 0 1 768 842.656z m-512-64h512c29.44 0 53.344-23.872 53.344-53.344v-682.656c0-29.44-23.872-53.344-53.344-53.344H256c-29.44 0-53.344 23.872-53.344 53.344V725.312c0 29.44 23.872 53.344 53.344 53.344z m426.656-352a32 32 0 0 0 3.232-63.84h-0.128l-3.072-0.16H341.344a32 32 0 0 0-3.2 63.84h0.128l3.072 0.16h341.344z m0-192a32 32 0 0 0 3.232-63.84h-0.128l-3.072-0.16H341.344a32 32 0 0 0-3.2 63.84h0.128l3.072 0.16h341.344zM512 618.656a32 32 0 0 0 3.232-63.84h-0.128l-3.072-0.16h-170.656a32 32 0 0 0-3.2 63.84h0.128l3.072 0.16h170.656z"  horiz-adv-x="1024" />
      
      <glyph glyph-name="tongzhi" unicode="&#58968;" d="M505.664 780.992c-176.64-3.712-317.6-161.056-317.6-353.248v-234.144l-94.72-89.856c-20.576-19.552-6.784-54.112 21.568-54.112l796.896 0.096c26.432 2.208 38.656 35.136 18.816 53.984l-94.72 89.856v234.176c0 194.496-144.32 353.312-323.904 353.312l-6.336-0.064zM512 718.368c143.584 0 261.216-129.472 261.216-290.592v-247.648l0.16-3.2a31.424 31.424 0 0 1 9.6-19.52l47.456-45.024H193.472l47.488 45.024a31.296 31.296 0 0 1 9.792 22.72v247.648c0 161.12 117.664 290.592 261.216 290.592z m-114.944-616.48c0-75.872 52.448-135.84 114.944-135.84 61.056 0 112.544 57.248 114.848 130.688l0.096 5.152h62.688c0-108.768-78.528-198.528-177.632-198.528-97.344 0-174.816 86.592-177.536 192.736l-0.096 5.824h62.688zM512 854.208c21.984 0 40-16.96 41.664-38.528v-0.128l0.096-3.136v-41.984a41.792 41.792 0 0 0-83.488-3.072v0.128l-0.096 3.136V812.416c0 23.072 18.72 41.792 41.792 41.792z"  horiz-adv-x="1024" />
      
      <glyph glyph-name="streamlist" unicode="&#58969;" d="M287.968 703.584h-64A31.968 31.968 0 0 1 192 671.68v-63.904c0-17.632 14.304-31.904 31.968-31.904h64a31.968 31.968 0 0 1 31.968 31.904V671.68a31.936 31.936 0 0 1-31.968 31.904z m0-255.584h-64a31.968 31.968 0 0 1-31.968-31.904v-63.904c0-17.632 14.304-31.904 31.968-31.904h64a31.968 31.968 0 0 1 31.968 31.904v63.904A31.936 31.936 0 0 1 287.968 448z m0-255.584h-64a31.968 31.968 0 0 1-31.968-31.904v-63.904c0-17.632 14.304-31.904 31.968-31.904h64a31.968 31.968 0 0 1 31.968 31.904v63.904a31.936 31.936 0 0 1-31.968 31.904z m127.904 415.328h383.84l1.152-0.032a31.936 31.936 0 0 1 0 63.872l-1.216-0.032h0.064-383.84l-1.152 0.032a31.936 31.936 0 0 1 0-63.872l1.216 0.032h-0.064z m383.84-191.648H415.872l-1.152 0.032a31.936 31.936 0 0 1 0-63.872l1.216 0.032h-0.064 383.84l1.152-0.032a31.936 31.936 0 0 1 0 63.872l-1.216-0.032h0.064z m0-255.584H415.872l-1.152 0.032a31.936 31.936 0 0 1 0-63.872l1.216 0.032h-0.064 383.84l1.152-0.032a31.936 31.936 0 0 1 0 63.872l-1.216-0.032h0.064z"  horiz-adv-x="1024" />
      
      <glyph glyph-name="shebei" unicode="&#58970;" d="M888.16 739.264H135.84a73.152 73.152 0 0 1-73.152-73.152v-188.096a73.152 73.152 0 0 1 73.152-73.152h752.32a73.152 73.152 0 0 1 73.152 73.152V666.112a73.152 73.152 0 0 1-73.152 73.152zM135.84 676.576h752.32c5.76 0 10.464-4.672 10.464-10.464v-188.096c0-5.76-4.672-10.464-10.464-10.464H135.84a10.464 10.464 0 0 0-10.464 10.464V666.112c0 5.76 4.672 10.464 10.464 10.464z m752.32-355.264H135.84a73.152 73.152 0 0 1-73.152-73.152v-188.096a73.152 73.152 0 0 1 73.152-73.152h752.32a73.152 73.152 0 0 1 73.152 73.152v188.096a73.152 73.152 0 0 1-73.152 73.152z m-752.32-62.688h752.32c5.76 0 10.464-4.672 10.464-10.464v-188.096c0-5.76-4.672-10.464-10.464-10.464H135.84a10.464 10.464 0 0 0-10.464 10.464v188.096c0 5.76 4.672 10.464 10.464 10.464zM177.632 582.528a41.792 41.792 0 0 1 83.584 0 41.792 41.792 0 0 1-83.584 0z m585.152-417.952a41.792 41.792 0 0 1 83.584 0 41.792 41.792 0 0 1-83.584 0z"  horiz-adv-x="1024" />
      
      <glyph glyph-name="tongjiyi" unicode="&#58971;" d="M480.64 739.264c-219.296 0-397.056-177.792-397.056-397.056S261.376-54.848 480.64-54.848s397.056 177.792 397.056 397.056c0 19.072-1.344 38.016-4 56.672l-3.84 26.912-326.528 0.032 0.032 309.6-28.704 2.432a384.864 384.864 0 0 1-34.016 1.44z m0-62.688v-313.472h333.696l0.128-1.664c0.352-6.368 0.544-12.8 0.544-19.232 0-184.672-149.696-334.368-334.368-334.368S146.272 157.536 146.272 342.208 295.968 676.576 480.64 676.576z m104.512 146.272v-355.264h355.616l-0.416 38.24c-3.872 176.16-147.68 317.024-323.84 317.024h-31.36z m62.688-292.576V758.304l0.448-0.064a261.44 261.44 0 0 0 226.752-221.76l0.8-6.208h-228.032z"  horiz-adv-x="1024" />
      
      <glyph glyph-name="shenfenzheng" unicode="&#58972;" d="M362.656 544a96 96 0 1 1 0-192 96 96 0 1 1 0 192z m0-64a32 32 0 0 0 0-64 32 32 0 0 0 0 64z m0-85.344a160 160 0 0 0 160-160 32 32 0 0 0-64 0 96 96 0 1 1-192 0 32 32 0 0 0-64 0 160 160 0 0 0 160 160zM853.344 757.344H170.688A117.344 117.344 0 0 1 53.344 640v-512a117.344 117.344 0 0 1 117.344-117.344h682.656A117.344 117.344 0 0 1 970.688 128V640a117.344 117.344 0 0 1-117.344 117.344z m-682.688-64h682.656c29.44 0 53.344-23.872 53.344-53.344v-512c0-29.44-23.872-53.344-53.344-53.344H170.656c-29.44 0-53.344 23.872-53.344 53.344V640c0 29.44 23.872 53.344 53.344 53.344zM789.344 512a32 32 0 0 0 3.232-63.84h-0.128l-3.072-0.16h-149.344a32 32 0 0 0-3.232 63.84h0.128L640 512h149.344z m0-192a32 32 0 0 0 3.232-63.84h-0.128l-3.072-0.16h-149.344a32 32 0 0 0-3.232 63.84h0.128L640 320h149.344z"  horiz-adv-x="1024" />
      
      <glyph glyph-name="wodexinxi_jibenxinxi" unicode="&#58973;" d="M490.656 842.656a266.656 266.656 0 1 1 0-533.312 266.656 266.656 0 0 1 0 533.312z m0-64a202.656 202.656 0 0 0 0-405.312 202.656 202.656 0 0 0 0 405.312z m1.888-405.312c68.992 0 135.648-16.672 195.328-48.16a32.064 32.064 0 0 0-14.912-60.32 32 32 0 0 0-15.104 3.776l0.16-0.096a349.248 349.248 0 0 1-164.832 40.768h-0.672 0.032c-195.488 0-353.888-157.632-353.888-352a32 32 0 0 0-64 0c0 229.792 187.136 416 417.888 416zM896 192a32 32 0 0 0 3.232-63.84h-0.128l-3.072-0.16h-256a32 32 0 0 0-3.232 63.84h0.128L640 192h256z m0-192a32 32 0 0 0 3.232-63.84h-0.128l-3.072-0.16h-256a32 32 0 0 0-3.232 63.84h0.128L640 0h256z"  horiz-adv-x="1024" />
      
      <glyph glyph-name="xiangyou_fanhui" unicode="&#58974;" d="M354.016 771.872a31.264 31.264 0 0 0 41.984 2.112l-0.064 0.032 2.368-2.144 354.624-354.624a31.36 31.36 0 0 0-42.016-46.496l0.064-0.032-2.368 2.144L353.984 727.488a31.264 31.264 0 0 0 0 44.352z m354.624-355.264a31.36 31.36 0 0 0 46.432-42.016l0.032 0.064-2.144-2.368-354.624-354.624a31.36 31.36 0 0 0-46.496 42.016l-0.032-0.064 2.144 2.368 354.624 354.624z"  horiz-adv-x="1024" />
      
      <glyph glyph-name="wodeliucheng" unicode="&#58975;" d="M517.312 278.112a234.944 234.944 0 0 0 46.4 48.512 25.344 25.344 0 0 1 6.112 4.992 220.48 220.48 0 0 0 107.104 42.016c0.096 3.712 0.096 7.392 0.096 11.104 0.192 10.016-3.008 12.992-12.992 12.896a5658.88 5658.88 0 0 0-137.888 0c-11.296 0.192-14.112-3.392-13.792-14.112 0.704-25.792 0.288-51.488 0.288-77.312 0-16.608 0-24.384 4.704-28.096z m-44.512-138.304c0 3.616 0.096 7.2 0.288 10.688h-52.384c-9.088 9.504-12.704 20.608-11.808 33.888 0.896 11.808 0.192 23.712 0.192 35.488 0 51.008 0 51.392 49.696 54.016 10.592 0.512 12.512 4.192 12.384 13.6a3139.776 3139.776 0 0 0 0 98.208c0.096 8.896-2.304 12.096-11.712 12.096a7291.84 7291.84 0 0 0-140 0c-10.016 0.096-13.184-2.912-12.992-12.992 0.608-25.696 0.192-51.488 0.192-77.312 0-32.096 0-32.096 32.288-33.312 22.816-0.896 28.608-6.208 28.992-28.704 0.384-20.896-0.288-41.792 0.288-62.688 0.288-12.288-2.688-23.008-10.4-32.384H236.512l-12.608 12.608v100.512c8.512 5.792 16.8 12.288 28 10.688 11.488-1.6 13.792 4 13.696 14.496-0.512 39.808-0.288 79.488-0.192 119.2 0.096 25.888 5.696 31.2 32.192 31.2 52.288 0 104.512-0.096 156.8 0.192 5.408 0.096 15.392-4 15.808 4.608 0.992 24.992 4.192 51.296-2.496 74.4-2.816 9.504-29.504 1.888-45.184 3.296-1.408 0.096-2.816 0-4.192 0-23.296 0.512-29.6 6.496-29.792 30.016-0.288 33.408 0.288 67.008-0.288 100.416-0.288 13.088 2.816 24.288 11.488 34.112h184.096c4.608-7.488 11.296-13.696 11.2-23.584-0.192-39.008 0.288-78.112-0.192-117.088-0.192-15.904-9.216-23.392-25.504-23.904-18.496-0.608-44.608 8.512-53.696-4-9.408-12.896-2.784-37.504-3.2-56.896 0-0.704 0.096-1.504 0-2.112-2.592-14.912 2.208-20.192 18.592-19.808 52.992 1.312 106.016 0.192 159.008 0.704 19.104 0.192 28.288-7.616 28.096-27.2-0.096-12.512-0.096-24.992-0.096-37.6 56.192-3.104 113.088-22.112 150.816-57.792V794.976a36.8 36.8 0 0 1-37.088 37.088h-668.8a36.8 36.8 0 0 1-37.088-37.088v-798.592a36.8 36.8 0 0 1 37.088-37.088h394.016c-53.504 41.888-84.192 107.008-84.192 180.608z m238.912 202.304a202.88 202.88 0 0 1-202.816-202.816 202.848 202.848 0 0 1 405.6 0 202.88 202.88 0 0 1-202.784 202.784z m-133.408-330.72c3.008 42.912 35.712 99.008 100.384 116-18.592 9.088-32.096 22.688-40 41.504a77.92 77.92 0 0 0-1.792 56.992c11.712 33.888 43.616 54.688 80.288 52.896 32.992-1.696 62.496-26.784 70.688-60.608a79.52 79.52 0 0 0-43.488-90.496c57.408-18.016 90.912-56.512 100.608-116.288h-266.688z"  horiz-adv-x="1024" />
      
      <glyph glyph-name="shishidanweiguanli" unicode="&#58976;" d="M419.424 781.056H177.632a114.944 114.944 0 0 1-114.944-114.944v-543.36a114.944 114.944 0 0 1 114.944-114.944h668.736a114.944 114.944 0 0 1 114.944 114.944V561.6l-0.096 4.608a114.976 114.976 0 0 1-114.848 110.304h-290.016L439.488 773.76a31.2 31.2 0 0 1-20.064 7.264zM177.632 718.368h230.432l116.896-97.248a31.264 31.264 0 0 1 20.064-7.264h301.344c28.864 0 52.256-23.392 52.256-52.256v-438.848c0-28.864-23.392-52.256-52.256-52.256H177.632a52.256 52.256 0 0 0-52.256 52.256V666.112c0 28.864 23.392 52.256 52.256 52.256z m125.376-480.64a31.36 31.36 0 0 1 62.72 0 31.36 31.36 0 0 1-62.72 0z m0 208.96a31.36 31.36 0 0 1 62.72 0 31.36 31.36 0 0 1-62.72 0z m417.984 31.36a31.36 31.36 0 0 0 3.136-62.56h-0.128l-3.008-0.16h-250.784a31.36 31.36 0 0 0-3.136 62.56h0.128l3.008 0.16h250.784z m0-208.992a31.36 31.36 0 0 0 3.136-62.56h-0.128l-3.008-0.16h-250.784a31.36 31.36 0 0 0-3.136 62.56h0.128l3.008 0.16h250.784z"  horiz-adv-x="1024" />
      
      <glyph glyph-name="tianjiazhaopian" unicode="&#58978;" d="M512 480a160 160 0 0 1 0-320 160 160 0 0 1 0 320z m0-64a96 96 0 1 0 0-192 96 96 0 1 0 0 192z m128 405.344h-256A117.344 117.344 0 0 1 266.656 704v-42.656a32 32 0 0 1 32-32h426.656a32 32 0 0 1 32 32V704a117.344 117.344 0 0 1-117.344 117.344z m0-64l3.488-0.096a53.376 53.376 0 0 0 49.824-53.216v-10.656H330.656v10.656c0 29.44 23.872 53.344 53.344 53.344h256z m213.344-64a117.344 117.344 0 0 0 117.216-112.384v-0.224l0.096-4.704v-269.728a32 32 0 0 0-63.84-3.232v0.128l-0.16 3.104V576.032c0 28.224-21.92 51.328-49.664 53.216h-0.16l-3.488 0.096H170.688c-28.224 0-51.328-21.92-53.216-49.664v-0.16l-0.096-3.488v-512c0-28.224 21.92-51.328 49.664-53.216h0.16l3.488-0.096h396.96a32 32 0 0 0 3.232-63.84h-0.128l-3.072-0.16H170.72a117.344 117.344 0 0 0-117.216 112.384v0.224l-0.096 4.704v512a117.344 117.344 0 0 0 112.384 117.216h0.224l4.704 0.096h682.656z m-42.688-138.688a32 32 0 0 0 3.232-63.84h-0.128l-3.072-0.16h-85.344a32 32 0 0 0-3.232 63.84h0.128l3.072 0.16h85.344z m128-448a32 32 0 0 0 3.232-63.84h-0.128l-3.072-0.16h-234.656a32 32 0 0 0-3.232 63.84h0.128l3.072 0.16h234.656zM821.344 224a32 32 0 0 0 31.84-28.8v-0.128l0.16-3.072v-234.656a32 32 0 0 0-63.84-3.232v0.128l-0.16 3.072v234.656a32 32 0 0 0 32 32z"  horiz-adv-x="1024" />
      
      <glyph glyph-name="xiangmu_xiangmuguanli" unicode="&#58979;" d="M348.48 801.952H219.424a73.152 73.152 0 0 1-73.152-73.152v-208.992c0-17.312 14.048-31.36 31.36-31.36h668.736a31.36 31.36 0 0 1 31.36 31.36V613.056a73.152 73.152 0 0 1-73.152 73.152h-317.504a10.4 10.4 0 0 0-7.872 3.584l-75.456 86.944a72.96 72.96 0 0 1-55.232 25.216h-0.032zM219.424 739.264h129.056c3.136 0 5.952-1.376 7.872-3.584l75.456-86.944a72.96 72.96 0 0 1 55.232-25.216l319.392-0.192a10.496 10.496 0 0 0 8.576-10.272v-61.888H208.96V728.8c0 5.76 4.672 10.464 10.464 10.464z m731.424-188.064H73.12a31.36 31.36 0 0 1-31.072-35.52l-0.032 0.16 60.192-465.12a73.216 73.216 0 0 1 72.544-63.744h674.464a73.12 73.12 0 0 1 72.48 63.36l0.032 0.384 60.192 465.152a31.36 31.36 0 0 1-31.072 35.36zM108.8 488.48h806.4l-55.584-429.76a10.464 10.464 0 0 0-10.368-9.12l-676.16 0.16a10.464 10.464 0 0 0-8.64 8.928v0.064l-55.616 429.76z m528.576-73.12a31.36 31.36 0 0 0 3.136-62.56h-0.128l-3.008-0.16h-250.784a31.36 31.36 0 0 0-3.136 62.56h0.128l3.008 0.16h250.784z"  horiz-adv-x="1024" />
      
      <glyph glyph-name="shoucang" unicode="&#58980;" d="M531.968 824.256c7.136-3.936 12.832-9.632 16.64-16.544l0.096-0.224 125.664-231.328 258.848-48.032a41.856 41.856 0 0 0 22.688-69.888l0.032 0.032-181.184-191.008 34.336-260.992a41.792 41.792 0 0 0-59.68-43.04l0.256-0.096-237.632 113.28-237.632-113.28a41.792 41.792 0 0 0-59.392 43.36l-0.032-0.224 34.304 261.024-181.184 191.008a41.792 41.792 0 0 0 22.464 69.792l0.256 0.032 258.848 48.032 125.664 231.328a41.92 41.92 0 0 0 56.896 16.64l-0.224 0.096zM512 743.776l-107.296-197.536a63.04 63.04 0 0 0-39.264-30.752l-4.416-0.96-220.992-40.992 154.72-163.104a62.528 62.528 0 0 0 17.088-47.232v0.192l-0.416-4.32-29.312-222.848 202.912 96.704a62.56 62.56 0 0 0 50.4 1.6l-0.416 0.16 4-1.728 202.912-96.704-29.312 222.848a62.496 62.496 0 0 0 13.856 48.16l-0.096-0.096 2.88 3.264 154.688 163.072-220.992 40.992a62.976 62.976 0 0 0-41.472 27.968l-0.16 0.256-2.048 3.488-107.296 197.536z"  horiz-adv-x="1024" />
      
      <glyph glyph-name="xiaoxi" unicode="&#58981;" d="M842.304 704.992H181.696C116.8 704.992 64 653.088 64 589.376v-409.792c0-63.712 52.8-115.616 117.696-115.616h660.512c64.896 0 117.696 51.904 117.696 115.616V589.376C960 653.088 907.2 704.96 842.304 704.96z m-183.296-316.992l245.888 239.904c7.104-11.2 11.296-24.384 11.296-38.496v-409.792c0-12.992-3.488-25.216-9.6-35.808l-247.616 244.192z m183.296 273.984c10.208 0 20-2.112 28.8-5.792L512.416 304.896 153.408 656.384c8.704 3.584 18.304 5.6 28.288 5.6h660.608zM117.696 143.392a70.88 70.88 0 0 0-9.888 36.192V589.376c0 14.304 4.192 27.616 11.488 38.912l242.688-240.288-244.288-244.608z m64-36.384a75.52 75.52 0 0 0-31.904 7.104l245.216 244.896 100-96.192a24.672 24.672 0 0 1 32.48-1.376l100.512 96.608 246.688-243.808a74.24 74.24 0 0 0-32.288-7.296l-660.704 0.096z m0 0"  horiz-adv-x="1024" />
      
      <glyph glyph-name="rili" unicode="&#58982;" d="M846.368 718.368H177.632a114.944 114.944 0 0 1-114.944-114.944v-501.536a114.944 114.944 0 0 1 114.944-114.944h668.736a114.944 114.944 0 0 1 114.944 114.944V603.424a114.944 114.944 0 0 1-114.944 114.944zM177.632 655.68h668.736c28.864 0 52.256-23.392 52.256-52.256v-501.536c0-28.864-23.392-52.256-52.256-52.256H177.632a52.256 52.256 0 0 0-52.256 52.256V603.424c0 28.864 23.392 52.256 52.256 52.256z m250.784-303.04a31.36 31.36 0 0 0 3.136-62.56h-0.128l-3.008-0.16H303.04a31.36 31.36 0 0 0-3.136 62.56h0.128l3.008 0.16h125.376z m313.472 0a31.36 31.36 0 0 0 3.136-62.56h-0.128l-3.008-0.16h-125.376a31.36 31.36 0 0 0-3.136 62.56h0.128l3.008 0.16h125.376z m-313.472-146.272a31.36 31.36 0 0 0 3.136-62.56h-0.128l-3.008-0.16H303.04a31.36 31.36 0 0 0-3.136 62.56h0.128l3.008 0.16h125.376z m313.472 0a31.36 31.36 0 0 0 3.136-62.56h-0.128l-3.008-0.16h-125.376a31.36 31.36 0 0 0-3.136 62.56h0.128l3.008 0.16h125.376z m198.528 313.472v-62.688H125.408v62.688zM313.472 781.056a31.36 31.36 0 0 0 31.2-28.192v-0.128l0.16-3.008v-104.48a31.36 31.36 0 0 0-62.56-3.136V642.24l-0.16 3.008V749.728a31.36 31.36 0 0 0 31.36 31.36z m417.952 0a31.36 31.36 0 0 0 31.2-28.192v-0.128l0.16-3.008v-104.48a31.36 31.36 0 0 0-62.56-3.136V642.24l-0.16 3.008V749.728a31.36 31.36 0 0 0 31.36 31.36z"  horiz-adv-x="1024" />
      
      <glyph glyph-name="wenjianjia" unicode="&#58983;" d="M338.048 801.952H208.992a73.152 73.152 0 0 1-73.152-73.152v-208.992c0-17.312 14.048-31.36 31.36-31.36h668.736a31.36 31.36 0 0 1 31.36 31.36V613.056a73.152 73.152 0 0 1-73.152 73.152h-317.504a10.4 10.4 0 0 0-7.872 3.584l-75.456 86.944a72.96 72.96 0 0 1-55.232 25.216h-0.032zM208.992 739.264h129.056c3.136 0 5.952-1.376 7.872-3.584l75.456-86.944a72.96 72.96 0 0 1 55.232-25.216l319.392-0.192a10.496 10.496 0 0 0 8.576-10.272v-61.888H198.528V728.8c0 5.76 4.672 10.464 10.464 10.464z m731.424-188.064H62.688a31.36 31.36 0 0 1-31.072-35.52l-0.032 0.16 60.192-465.12a73.216 73.216 0 0 1 72.544-63.744h674.464a73.12 73.12 0 0 1 72.48 63.36l0.032 0.384 60.192 465.152a31.36 31.36 0 0 1-31.072 35.36z m-842.08-62.72h806.4l-55.584-429.76a10.464 10.464 0 0 0-10.368-9.12l-676.16 0.16a10.464 10.464 0 0 0-8.64 8.928v0.064l-55.616 429.76z"  horiz-adv-x="1024" />
      
      </font>
</defs>
</svg>
